<svg width="444" height="261" viewBox="0 0 444 261" fill="none" xmlns="http://www.w3.org/2000/svg">
<g clip-path="url(#clip0)">
<path d="M266.532 45.8382C272.77 45.8382 277.826 40.7668 277.826 34.511C277.826 28.2552 272.77 23.1838 266.532 23.1838C260.295 23.1838 255.238 28.2552 255.238 34.511C255.238 40.7668 260.295 45.8382 266.532 45.8382Z" stroke="#3F3D56" stroke-miterlimit="10"/>
<path d="M289.551 13.2082L286.82 10.4551C286.687 10.3179 286.527 10.2086 286.351 10.1336C286.175 10.0585 285.985 10.0192 285.794 10.0179C285.603 10.0165 285.413 10.0532 285.236 10.1258C285.059 10.1984 284.897 10.3055 284.762 10.4409L267.621 27.4892L260.373 20.1623C260.239 20.0266 260.081 19.9187 259.906 19.8446C259.731 19.7705 259.543 19.7316 259.353 19.7303C259.164 19.729 258.975 19.7652 258.799 19.8368C258.624 19.9085 258.463 20.0142 258.328 20.1479L255.569 22.8866C255.296 23.1594 255.141 23.5294 255.138 23.916C255.136 24.3027 255.285 24.6747 255.555 24.9513L266.563 36.0779C266.835 36.3519 267.204 36.5071 267.589 36.5098C267.975 36.5125 268.346 36.3624 268.621 36.0922L289.537 15.2729C289.673 15.1387 289.782 14.9786 289.857 14.8019C289.932 14.6253 289.971 14.4355 289.973 14.2435C289.974 14.0516 289.937 13.8613 289.865 13.6835C289.793 13.5058 289.686 13.3443 289.551 13.2082Z" fill="#F8E71C"/>
<path d="M193.278 28.8474H11.5005C5.14895 28.8474 0 34.0116 0 40.382V40.7223C0 47.0927 5.14895 52.2569 11.5005 52.2569H193.278C199.629 52.2569 204.778 47.0927 204.778 40.7223V40.382C204.778 34.0116 199.629 28.8474 193.278 28.8474Z" fill="#F2F2F2"/>
<path d="M193.534 69.4365H11.7565C5.40492 69.4365 0.255966 74.6007 0.255966 80.9711V81.3114C0.255966 87.6818 5.40492 92.846 11.7565 92.846H193.534C199.885 92.846 205.034 87.6818 205.034 81.3114V80.9711C205.034 74.6007 199.885 69.4365 193.534 69.4365Z" fill="#F2F2F2"/>
<path d="M193.79 110.026H12.0125C5.6609 110.026 0.511948 115.19 0.511948 121.56V121.901C0.511948 128.271 5.6609 133.435 12.0125 133.435H193.79C200.141 133.435 205.29 128.271 205.29 121.901V121.56C205.29 115.19 200.141 110.026 193.79 110.026Z" fill="#F2F2F2"/>
<path d="M194.046 150.615H12.2684C5.91688 150.615 0.767929 155.779 0.767929 162.149V162.489C0.767929 168.86 5.91688 174.024 12.2684 174.024H194.046C200.397 174.024 205.546 168.86 205.546 162.489V162.149C205.546 155.779 200.397 150.615 194.046 150.615Z" fill="#F2F2F2"/>
<path d="M199.677 22.8064H17.9003C11.5487 22.8064 6.39978 27.9706 6.39978 34.3409V34.6813C6.39978 41.0517 11.5487 46.2159 17.9003 46.2159H199.677C206.029 46.2159 211.178 41.0517 211.178 34.6813V34.3409C211.178 27.9706 206.029 22.8064 199.677 22.8064Z" stroke="#3F3D56" stroke-miterlimit="10"/>
<path d="M199.933 63.3955H18.1563C11.8047 63.3955 6.65576 68.5597 6.65576 74.93V75.2704C6.65576 81.6408 11.8047 86.805 18.1563 86.805H199.933C206.285 86.805 211.434 81.6408 211.434 75.2704V74.93C211.434 68.5597 206.285 63.3955 199.933 63.3955Z" stroke="#3F3D56" stroke-miterlimit="10"/>
<path d="M200.189 103.984H18.4122C12.0607 103.984 6.91173 109.149 6.91173 115.519V115.859C6.91173 122.23 12.0607 127.394 18.4122 127.394H200.189C206.541 127.394 211.69 122.23 211.69 115.859V115.519C211.69 109.149 206.541 103.984 200.189 103.984Z" stroke="#3F3D56" stroke-miterlimit="10"/>
<path d="M200.445 144.573H18.6682C12.3166 144.573 7.16769 149.738 7.16769 156.108V156.448C7.16769 162.819 12.3166 167.983 18.6682 167.983H200.445C206.797 167.983 211.946 162.819 211.946 156.448V156.108C211.946 149.738 206.797 144.573 200.445 144.573Z" stroke="#3F3D56" stroke-miterlimit="10"/>
<path d="M266.532 86.6162C272.77 86.6162 277.826 81.5449 277.826 75.2891C277.826 69.0333 272.77 63.9619 266.532 63.9619C260.295 63.9619 255.238 69.0333 255.238 75.2891C255.238 81.5449 260.295 86.6162 266.532 86.6162Z" stroke="#3F3D56" stroke-miterlimit="10"/>
<path d="M266.532 127.394C272.77 127.394 277.826 122.322 277.826 116.067C277.826 109.811 272.77 104.74 266.532 104.74C260.295 104.74 255.238 109.811 255.238 116.067C255.238 122.322 260.295 127.394 266.532 127.394Z" stroke="#3F3D56" stroke-miterlimit="10"/>
<path d="M266.532 168.172C272.77 168.172 277.826 163.1 277.826 156.844C277.826 150.589 272.77 145.517 266.532 145.517C260.295 145.517 255.238 150.589 255.238 156.844C255.238 163.1 260.295 168.172 266.532 168.172Z" stroke="#3F3D56" stroke-miterlimit="10"/>
<path d="M289.551 54.3637L286.82 51.6106C286.687 51.4734 286.527 51.3641 286.351 51.2891C286.175 51.214 285.985 51.1747 285.794 51.1734C285.603 51.172 285.413 51.2088 285.236 51.2814C285.059 51.354 284.897 51.461 284.762 51.5964L267.621 68.6447L260.373 61.3178C260.239 61.1822 260.081 61.0742 259.906 61.0001C259.731 60.926 259.543 60.8872 259.353 60.8858C259.164 60.8845 258.975 60.9207 258.799 60.9923C258.624 61.064 258.463 61.1697 258.328 61.3034L255.569 64.0421C255.296 64.3149 255.141 64.6849 255.138 65.0715C255.136 65.4582 255.285 65.8303 255.555 66.1068L266.563 77.2334C266.835 77.5074 267.204 77.6627 267.589 77.6654C267.975 77.668 268.346 77.518 268.621 77.2477L289.537 56.4284C289.673 56.2942 289.782 56.1341 289.857 55.9574C289.932 55.7808 289.971 55.591 289.973 55.399C289.974 55.2071 289.937 55.0168 289.865 54.8391C289.793 54.6614 289.686 54.4998 289.551 54.3637V54.3637Z" fill="#F8E71C"/>
<path d="M289.551 136.674L286.82 133.921C286.687 133.784 286.527 133.675 286.351 133.6C286.175 133.525 285.985 133.485 285.794 133.484C285.603 133.483 285.413 133.519 285.236 133.592C285.059 133.664 284.897 133.772 284.762 133.907L267.621 150.955L260.373 143.628C260.239 143.493 260.081 143.385 259.906 143.311C259.731 143.237 259.543 143.198 259.353 143.196C259.164 143.195 258.975 143.231 258.799 143.303C258.623 143.375 258.463 143.48 258.328 143.614L255.569 146.353C255.296 146.625 255.141 146.995 255.138 147.382C255.136 147.769 255.285 148.141 255.555 148.417L266.563 159.544C266.835 159.818 267.204 159.973 267.589 159.976C267.975 159.979 268.346 159.829 268.621 159.558L289.537 138.739C289.673 138.605 289.782 138.445 289.857 138.268C289.932 138.091 289.971 137.902 289.973 137.71C289.974 137.518 289.937 137.327 289.865 137.15C289.793 136.972 289.686 136.81 289.551 136.674Z" fill="#F8E71C"/>
<path d="M363.394 261C401.587 261 432.549 256.16 432.549 250.191C432.549 244.221 401.587 239.381 363.394 239.381C325.201 239.381 294.239 244.221 294.239 250.191C294.239 256.16 325.201 261 363.394 261Z" fill="#F2F2F2"/>
<path d="M374.62 256.947C412.814 256.947 443.775 252.107 443.775 246.137C443.775 240.167 412.814 235.328 374.62 235.328C336.427 235.328 305.465 240.167 305.465 246.137C305.465 252.107 336.427 256.947 374.62 256.947Z" stroke="#3F3D56" stroke-miterlimit="10"/>
<path d="M408.575 49.4833C408.376 49.255 408.17 49.033 407.959 48.8172C409.58 46.9727 411.258 45.0813 411.243 42.7108C411.225 39.8301 408.676 37.6199 407.725 34.8967C406.429 31.1905 408.227 27.22 408.966 23.3679C409.541 20.2382 409.421 17.0197 408.613 13.9421C407.804 10.8646 406.329 8.00392 404.291 5.56433C403.543 4.67698 402.673 3.81873 401.559 3.46653C399.864 2.93056 398.061 3.67519 396.295 3.89394C390.465 4.61605 385.16 -0.422433 379.302 0.0286312C378.914 0.042776 378.532 0.128611 378.174 0.28183C377.416 0.64542 377.005 1.4477 376.537 2.13928C374.717 4.8246 371.661 6.15923 368.621 7.53853C368.239 7.65112 367.876 7.81842 367.541 8.03528C366.628 8.46165 365.729 8.90616 364.881 9.40972C359.141 12.8172 359.974 17.5847 363.358 20.5296C362.697 23.8354 359.327 26.7465 359.908 30.1453C360.363 32.8098 363.129 34.6232 363.662 37.2735C363.971 38.8128 363.484 40.2797 362.807 41.7358C356.384 43.2266 349.128 45.9722 348.562 50.8175C347.576 59.2469 344.611 82.5274 344.611 82.5274C344.611 82.5274 341.176 101.18 354.23 92.3625L354.062 92.8589C351.709 100.001 350.104 107.37 349.271 114.846C349.139 115.957 348.873 116.834 348.39 117.12C348.215 117.224 348.561 117.388 349.315 117.594C349.23 117.908 349.138 118.219 349.056 118.534C347.622 123.986 346.705 129.561 346.318 135.186C345.951 140.168 345.266 145.122 344.268 150.017C341.176 165.617 344.268 185.627 344.268 185.627L351.014 217.486L352.169 222.933C352.931 223.778 353.863 224.453 354.903 224.912C355.355 226.864 355.668 228.845 355.841 230.841C355.859 231.064 355.874 231.289 355.888 231.514C355.484 231.566 355.096 231.704 354.75 231.921C354.404 232.137 354.11 232.426 353.886 232.768C351.481 236.159 354.23 238.872 344.955 245.655C342.558 247.408 341.403 249.001 341.11 250.354V250.354C340.794 251.811 341.479 252.99 342.703 253.788L342.705 253.789C342.914 253.924 343.13 254.046 343.354 254.153L343.365 254.158C343.478 254.213 343.594 254.264 343.713 254.314L343.715 254.314C343.834 254.363 343.956 254.41 344.081 254.453L344.103 254.46C344.22 254.501 344.34 254.539 344.461 254.575L344.487 254.583C344.614 254.619 344.742 254.653 344.872 254.685C344.883 254.687 344.895 254.69 344.906 254.692C345.025 254.72 345.147 254.746 345.269 254.77C345.285 254.773 345.301 254.776 345.317 254.779C345.448 254.804 345.581 254.825 345.715 254.845C345.729 254.847 345.744 254.848 345.759 254.85C345.879 254.867 346 254.881 346.122 254.894C346.145 254.896 346.168 254.898 346.192 254.901C346.326 254.913 346.46 254.923 346.596 254.93C346.614 254.931 346.631 254.932 346.648 254.933C346.769 254.938 346.889 254.942 347.011 254.943C347.039 254.944 347.068 254.944 347.096 254.944C347.232 254.945 347.368 254.943 347.504 254.939C347.522 254.938 347.54 254.937 347.558 254.936C347.679 254.931 347.8 254.925 347.921 254.915C347.953 254.913 347.985 254.911 348.017 254.908C348.154 254.897 348.29 254.883 348.426 254.866C348.442 254.864 348.459 254.862 348.475 254.86C348.597 254.844 348.719 254.826 348.841 254.806C348.874 254.8 348.908 254.795 348.942 254.789C349.078 254.765 349.213 254.739 349.348 254.71C349.361 254.707 349.374 254.704 349.387 254.701C349.51 254.674 349.632 254.644 349.755 254.612C349.789 254.603 349.824 254.594 349.858 254.584C349.991 254.548 350.124 254.509 350.256 254.467L350.278 254.459C350.403 254.419 350.528 254.375 350.651 254.329C350.685 254.317 350.718 254.304 350.751 254.292C350.881 254.242 351.01 254.19 351.138 254.134C357.321 251.421 370.031 244.299 370.031 244.299L370.031 244.234L370.031 244.19L370.031 244.128L370.03 244.071L370.029 243.972L370.029 243.884C370.028 243.849 370.028 243.814 370.027 243.774L370.026 243.671C370.026 243.623 370.025 243.577 370.024 243.525C370.024 243.49 370.023 243.451 370.022 243.414C370.021 243.359 370.021 243.307 370.02 243.248C370.018 243.154 370.016 243.056 370.014 242.952C369.951 239.988 369.659 233.18 368.314 233.446C367.855 233.537 367.544 234.183 367.222 234.926C367.17 234.828 367.118 234.728 367.063 234.623C365.754 232.09 363.86 227.744 363.676 223.496C364.732 222.728 365.71 221.858 366.596 220.898C366.596 220.898 365.906 217.981 365.318 214.905C364.81 212.239 364.377 209.452 364.535 208.349C364.879 205.975 360.413 187.662 360.413 187.662C360.413 187.662 360.873 183.633 361.797 178.033C363.594 167.15 367.132 150.332 372.412 145.577C372.536 145.469 372.656 145.364 372.78 145.269C372.78 145.269 376.558 145.947 379.65 167.313L380.546 176.829C380.803 179.465 381.249 182.079 381.879 184.65C382.801 188.751 383.092 192.969 382.742 197.158C382.35 202.767 382.182 209.37 382.109 214.006C382.054 217.5 382.054 219.88 382.054 219.88C382.694 220.422 383.384 220.9 384.116 221.309V224.421C384.108 225.081 383.85 225.714 383.392 226.189L383.38 226.202C382.893 226.752 382.538 227.407 382.343 228.116C381.744 229.198 381.236 230.957 381.024 233.785C380.337 242.942 379.993 241.925 379.993 241.925C379.599 242.915 379.337 243.953 379.214 245.012V245.012V245.013C379.195 245.211 379.183 245.41 379.179 245.61C379.178 245.641 379.179 245.673 379.179 245.704C379.178 245.795 379.18 245.887 379.183 245.978C379.185 246.022 379.188 246.067 379.191 246.111C379.195 246.179 379.201 246.246 379.208 246.313C379.214 246.374 379.221 246.435 379.23 246.495C379.236 246.538 379.242 246.581 379.25 246.623C379.264 246.704 379.28 246.785 379.299 246.864C379.307 246.9 379.316 246.935 379.326 246.97C379.347 247.053 379.371 247.135 379.399 247.215C379.408 247.24 379.418 247.265 379.427 247.29C379.454 247.363 379.484 247.435 379.516 247.505C379.526 247.527 379.535 247.548 379.545 247.569C379.585 247.651 379.63 247.731 379.678 247.808C379.691 247.829 379.705 247.851 379.718 247.872C379.769 247.949 379.824 248.024 379.883 248.095C379.897 248.112 379.911 248.128 379.926 248.144C379.99 248.219 380.059 248.29 380.133 248.357C380.14 248.364 380.149 248.37 380.157 248.377C380.232 248.443 380.311 248.505 380.394 248.561C380.407 248.57 380.419 248.58 380.432 248.588C380.523 248.648 380.617 248.702 380.715 248.75C380.734 248.76 380.753 248.769 380.773 248.779C380.878 248.829 380.986 248.873 381.096 248.91C381.115 248.917 381.134 248.923 381.153 248.929C381.279 248.97 381.406 249.004 381.536 249.032L381.549 249.034C381.683 249.062 381.825 249.083 381.973 249.1C381.994 249.102 382.013 249.105 382.034 249.107C382.181 249.121 382.335 249.129 382.496 249.132C382.526 249.132 382.556 249.133 382.586 249.133C382.75 249.133 382.919 249.129 383.097 249.117C383.125 249.115 383.154 249.112 383.182 249.11C383.371 249.095 383.566 249.076 383.772 249.047C390.986 248.029 394.421 247.351 394.078 243.281C393.871 240.828 393.289 237.267 392.86 234.824C392.642 233.582 392.242 232.38 391.672 231.257C391.689 231.066 391.706 230.87 391.721 230.669C391.845 228.986 391.838 226.985 391.33 225.646L391.488 222.676C393.277 222.221 394.894 221.249 396.139 219.88C396.139 219.88 396.19 217.679 396.341 214.763C396.568 210.255 397.022 204.036 397.856 201.567C399.23 197.497 397.856 183.253 397.856 183.253C397.856 183.253 392.704 158.835 397.513 148.321C401.756 139.047 401.718 129.77 397.638 120.728C397.718 120.664 397.792 120.591 397.856 120.511C397.856 120.511 396.826 119.833 397.169 112.033C397.431 106.08 395.694 99.9333 394.856 97.3542C396.169 97.9185 397.515 98.4034 398.887 98.8063C406.788 101.18 407.475 92.3626 407.475 92.3626L409.192 79.1359L411.23 59.4207L411.229 59.4199C411.788 57.8731 412.537 54.0099 408.575 49.4833ZM373.654 36.4152C373.644 36.6334 373.629 36.8516 373.607 37.0686C373.544 37.7702 373.396 38.4616 373.167 39.1278C373.402 38.2277 373.545 37.3059 373.593 36.3768C373.613 36.3898 373.634 36.4023 373.654 36.4152L373.654 36.4152ZM394.421 84.5622C394.543 84.7861 394.659 85.0041 394.771 85.2183L393.903 84.7742C394.224 83.1749 394.745 81.6225 395.452 80.1533C396.305 78.4436 397.008 76.6622 397.551 74.8294C397.527 76.9474 397.629 79.065 397.856 81.1708C398.543 86.5971 394.421 84.5622 394.421 84.5622Z" fill="url(#paint0_linear)"/>
<path d="M365.291 10.8259C364.193 11.5769 363.045 12.4451 362.655 13.7192C362.024 15.7742 363.606 17.8375 363.763 19.9818C364.047 23.8809 359.651 27.1033 360.299 30.9585C360.743 33.6009 363.444 35.3992 363.964 38.0277C364.723 41.861 360.58 45.2415 360.906 49.136C361.08 51.2104 362.518 52.9721 364.15 54.2578C366.442 56.0561 369.184 57.1846 372.074 57.5189C371.882 54.1841 369.416 51.1501 369.839 47.8369C370.129 45.5651 371.723 43.7073 372.645 41.6118C374.264 37.9327 373.746 33.6742 372.775 29.7725C371.803 25.8707 370.402 22.0137 370.331 17.9929C370.289 15.5727 371.421 12.0152 370.59 9.71866C369.581 6.92684 367.173 9.53914 365.291 10.8259Z" fill="#3F3D56"/>
<path opacity="0.1" d="M365.291 10.9189C364.193 11.6699 363.045 12.5381 362.655 13.8122C362.024 15.8672 363.606 17.9305 363.763 20.0748C364.047 23.9739 359.651 27.1963 360.299 31.0515C360.743 33.6939 363.444 35.4923 363.964 38.1207C364.723 41.954 360.58 45.3345 360.906 49.229C361.08 51.3034 362.518 53.0651 364.15 54.3509C366.442 56.1491 369.184 57.2777 372.074 57.6119C371.882 54.2772 369.416 51.2431 369.839 47.93C370.129 45.6581 371.723 43.8003 372.645 41.7048C374.264 38.0257 373.746 33.7672 372.775 29.8655C371.803 25.9637 370.402 22.1067 370.331 18.0859C370.289 15.6657 371.421 12.1082 370.59 9.81166C369.581 7.01987 367.173 9.63217 365.291 10.9189Z" fill="black"/>
<path d="M368.505 235.941L365.487 238.969C365.487 238.969 354.756 244.686 356.097 236.951C356.464 234.651 356.542 232.314 356.329 229.995C356.052 226.758 355.412 223.563 354.421 220.47L364.481 218.452C362.808 223.726 365.564 230.365 367.285 233.745C367.979 235.107 368.505 235.941 368.505 235.941Z" fill="#FFB9B9"/>
<path d="M391.356 229.823C391.28 230.86 391.153 231.891 390.973 232.914C390.973 232.914 382.59 238.632 381.919 232.242C381.483 228.078 382.469 226.198 383.214 225.394L383.225 225.381C383.673 224.907 383.925 224.28 383.931 223.627V216.097L391.309 218.452L390.973 224.842C391.47 226.171 391.476 228.155 391.356 229.823Z" fill="#FFB9B9"/>
<path opacity="0.05" d="M368.505 235.941L365.487 238.968C365.487 238.968 354.756 244.686 356.097 236.95C356.464 234.651 356.542 232.314 356.329 229.995C358.68 229.649 361.463 232.242 361.463 232.242C365.393 237.805 366.453 235.699 367.284 233.745C367.979 235.107 368.505 235.941 368.505 235.941Z" fill="black"/>
<path d="M361.463 232.914C361.463 232.914 356.768 228.542 354.421 231.905C352.073 235.269 354.756 237.96 345.702 244.686C336.647 251.413 345.702 255.785 351.738 253.095C357.774 250.404 370.182 243.341 370.182 243.341C370.182 243.341 370.182 232.242 368.505 232.578C366.828 232.914 367.164 240.987 361.463 232.914Z" fill="#3F3D56"/>
<path opacity="0.05" d="M391.356 229.823C391.28 230.859 391.153 231.891 390.973 232.914C390.973 232.914 382.59 238.632 381.919 232.242C381.483 228.078 382.469 226.198 383.214 225.394C383.505 225.173 383.85 225.037 384.213 224.999C384.576 224.961 384.942 225.023 385.273 225.178C386.614 224.58 388.09 225.579 389.31 226.87C390.137 227.745 390.827 228.741 391.356 229.823Z" fill="black"/>
<path d="M385.273 225.851C385.273 225.851 381.584 223.833 380.913 232.914C380.242 241.995 379.907 240.986 379.907 240.986C379.907 240.986 376.554 249.059 383.596 248.05C390.638 247.041 393.992 246.368 393.656 242.332C393.454 239.899 392.886 236.367 392.467 233.944C392.068 231.544 390.97 229.317 389.311 227.542C388.088 226.25 386.614 225.253 385.273 225.851Z" fill="#3F3D56"/>
<path d="M397.345 182.8C397.345 182.8 398.686 196.926 397.345 200.962C396.53 203.411 396.087 209.579 395.866 214.049C395.719 216.942 395.668 219.125 395.668 219.125C389.297 225.851 381.919 219.125 381.919 219.125C381.919 219.125 381.919 216.763 381.973 213.299C382.043 208.701 382.207 202.153 382.59 196.59C382.932 192.436 382.648 188.255 381.748 184.186C381.132 181.634 380.697 179.043 380.447 176.43L379.572 166.992C376.554 145.803 372.865 145.13 372.865 145.13C372.744 145.224 372.627 145.329 372.506 145.436C367.352 150.152 363.898 166.831 362.144 177.624C361.242 183.177 360.792 187.172 360.792 187.172C360.792 187.172 365.152 205.335 364.816 207.689C364.662 208.782 365.085 211.547 365.581 214.19C366.155 217.241 366.829 220.134 366.829 220.134C358.445 229.215 352.744 222.152 352.744 222.152L351.617 216.75L345.031 185.154C345.031 185.154 342.013 165.31 345.031 149.839C346.006 144.983 346.674 140.071 347.033 135.131C347.41 129.555 348.305 124.026 349.706 118.617C350.115 117.016 350.569 115.427 351.067 113.851C351.067 113.851 363.66 111.654 375.517 111.654C384.411 111.654 392.888 112.889 395.333 117.214C395.896 118.21 396.408 119.207 396.869 120.207C401.114 129.359 401.242 138.76 397.01 148.157C392.315 158.584 397.345 182.8 397.345 182.8Z" fill="#3F3D56"/>
<path d="M369.176 60.709C369.176 60.709 351.403 42.5467 364.816 43.8921C367.858 44.1981 369.917 43.6533 371.282 42.6308C372.838 41.467 373.492 39.6845 373.673 37.8245C374.042 34.1147 372.529 30.1022 372.529 30.1022C372.529 30.1022 390.638 15.6396 386.949 33.8019C386.544 35.6476 386.308 37.5266 386.245 39.4154C386.185 43.2698 387.449 44.7463 389.223 45.3517C392.214 46.3776 396.661 44.9415 398.686 48.2645C402.375 54.3185 369.176 60.709 369.176 60.709Z" fill="#FFB9B9"/>
<path opacity="0.1" d="M369.176 60.709C369.176 60.709 351.403 42.5467 364.816 43.8921C367.858 44.1981 369.917 43.6533 371.282 42.6308C372.838 41.467 373.492 39.6845 373.673 37.8245C374.042 34.1147 372.529 30.1022 372.529 30.1022C372.529 30.1022 390.638 15.6396 386.949 33.8019C386.544 35.6476 386.308 37.5266 386.245 39.4154C386.185 43.2698 387.449 44.7463 389.223 45.3517C392.214 46.3776 396.661 44.9415 398.686 48.2645C402.375 54.3185 369.176 60.709 369.176 60.709Z" fill="black"/>
<path d="M396.004 25.0573C396.001 28.8916 394.481 32.5681 391.777 35.2786C389.073 37.9891 385.407 39.5117 381.584 39.5117C377.761 39.5117 374.094 37.9891 371.39 35.2786C368.686 32.5681 367.166 28.8916 367.164 25.0573C367.164 24.7882 367.171 24.5191 367.187 24.2534C367.396 20.4932 369.059 16.9629 371.822 14.4132C374.586 11.8636 378.232 10.4956 381.985 10.6003C385.739 10.705 389.303 12.2741 391.921 14.9739C394.539 17.6737 396.004 21.2912 396.004 25.0573V25.0573Z" fill="#FFB9B9"/>
<path opacity="0.05" d="M369.176 60.709C369.176 60.709 351.403 42.5468 364.816 43.8921C367.858 44.1982 369.917 43.6533 371.282 42.6309C368.686 46.9494 365.765 54.7155 378.901 53.9823C390.923 53.313 390.719 48.5067 389.223 45.3518C392.214 46.3777 396.661 44.9415 398.686 48.2645C402.375 54.3186 369.176 60.709 369.176 60.709Z" fill="black"/>
<path opacity="0.1" d="M397.345 121.586C394.293 125.565 355.393 120.349 349.706 118.616C350.115 117.016 350.569 115.427 351.067 113.851C351.067 113.851 363.66 111.654 375.517 111.654C384.411 111.654 392.888 112.889 395.333 117.214C395.896 118.21 396.408 119.207 396.869 120.207C397.083 121.411 397.345 121.586 397.345 121.586Z" fill="black"/>
<path d="M372.865 40.865C372.865 40.865 350.229 42.7149 349.223 51.4597C348.261 59.8194 345.366 82.9073 345.366 82.9073C345.366 82.9073 342.013 101.406 354.756 92.6611L354.592 93.1534C352.295 100.242 350.727 107.549 349.915 114.958C349.786 116.061 349.527 116.93 349.055 117.214C347.378 118.223 393.992 124.95 397.345 120.577C397.345 120.577 396.339 119.905 396.674 112.169C397.01 104.433 393.992 96.3608 393.992 96.3608C393.992 96.3608 391.309 88.2887 394.998 80.5529C398.686 72.8172 397.345 70.4628 397.345 70.4628L410.088 60.709C410.088 60.709 412.84 55.9772 407.809 50.1365C406.299 48.4087 404.463 46.9966 402.408 45.981C400.353 44.9653 398.118 44.3661 395.832 44.2175L387.042 43.5904C387.042 43.5904 396.674 53.9822 378.566 54.9912C360.457 56.0002 372.865 40.865 372.865 40.865Z" fill="#575A89"/>
<path opacity="0.05" d="M357.774 59.3638C357.774 59.3638 358.445 64.7452 357.103 66.4269C355.762 68.1086 355.427 75.8443 357.103 80.5531" fill="black"/>
<path opacity="0.1" d="M372.506 145.436C367.352 150.151 363.898 166.83 362.144 177.624C359.702 162.599 369.847 137.73 369.847 137.73L372.506 145.436Z" fill="black"/>
<path opacity="0.1" d="M366.828 220.134C358.445 229.215 352.744 222.152 352.744 222.152L351.617 216.75C354.786 218.401 360.142 219.683 365.581 214.19C366.154 217.241 366.828 220.134 366.828 220.134Z" fill="black"/>
<path opacity="0.1" d="M395.866 214.049C395.719 216.942 395.668 219.125 395.668 219.125C389.297 225.851 381.919 219.125 381.919 219.125C381.919 219.125 381.919 216.764 381.973 213.299C384.739 215.062 389.712 217.002 395.866 214.049Z" fill="black"/>
<path d="M380.57 70.7993H361.135C360.205 70.7993 359.451 71.5555 359.451 72.4883V78.5278C359.451 79.4606 360.205 80.2168 361.135 80.2168H380.57C381.5 80.2168 382.254 79.4606 382.254 78.5278V72.4883C382.254 71.5555 381.5 70.7993 380.57 70.7993Z" fill="#CDD0DB"/>
<path opacity="0.05" d="M380.57 70.7993H361.135C360.205 70.7993 359.451 71.5555 359.451 72.4883V78.5278C359.451 79.4606 360.205 80.2168 361.135 80.2168H380.57C381.5 80.2168 382.254 79.4606 382.254 78.5278V72.4883C382.254 71.5555 381.5 70.7993 380.57 70.7993Z" fill="black"/>
<path d="M380.57 71.1355H361.135C360.205 71.1355 359.451 71.8917 359.451 72.8245V78.864C359.451 79.7968 360.205 80.553 361.135 80.553H380.57C381.5 80.553 382.254 79.7968 382.254 78.864V72.8245C382.254 71.8917 381.5 71.1355 380.57 71.1355Z" fill="#3F3D56"/>
<path d="M377.392 76.6853C377.947 76.6853 378.398 76.2335 378.398 75.6763C378.398 75.119 377.947 74.6672 377.392 74.6672C376.836 74.6672 376.386 75.119 376.386 75.6763C376.386 76.2335 376.836 76.6853 377.392 76.6853Z" fill="#9DA7C0"/>
<path opacity="0.05" d="M349.746 85.7125C350.048 84.8087 350.544 83.9821 351.198 83.2906C351.853 82.5992 352.65 82.0595 353.534 81.7095C354.95 81.1828 356.113 80.1356 356.787 78.7804C358.109 75.8444 360.457 72.8173 366.493 74.8354C372.529 76.8534 364.816 78.1988 364.816 78.1988C364.816 78.1988 378.566 76.1807 373.2 80.2168C367.835 84.2529 361.128 86.6072 361.128 86.6072L357.825 90.1143C357.352 90.6267 356.776 91.0329 356.135 91.3061C355.494 91.5793 354.803 91.7134 354.106 91.6995C353.41 91.6857 352.724 91.5242 352.095 91.2257C351.465 90.9272 350.906 90.4984 350.453 89.9676C349.97 89.3845 349.651 88.6834 349.526 87.9359C349.402 87.1883 349.478 86.4211 349.746 85.7125Z" fill="black"/>
<path d="M349.41 85.0397C349.713 84.1358 350.209 83.3092 350.863 82.6178C351.517 81.9263 352.315 81.3867 353.199 81.0367C354.615 80.51 355.777 79.4628 356.451 78.1076C357.774 75.1715 360.122 72.1445 366.158 74.1625C372.194 76.1806 364.481 77.5259 364.481 77.5259C364.481 77.5259 378.23 75.5079 372.865 79.5439C367.499 83.58 360.792 85.9344 360.792 85.9344L357.49 89.4415C357.016 89.9539 356.44 90.36 355.8 90.6332C355.159 90.9065 354.467 91.0405 353.771 91.0267C353.075 91.0128 352.389 90.8513 351.759 90.5528C351.13 90.2543 350.57 89.8256 350.118 89.2947C349.635 88.7116 349.315 88.0105 349.191 87.263C349.067 86.5155 349.142 85.7483 349.41 85.0397V85.0397Z" fill="#FFB9B9"/>
<path opacity="0.05" d="M396.674 91.9886L394.327 97.7063L391.322 95.4898L382.925 89.2979L377.224 85.5981C369.176 79.544 377.224 78.535 377.224 78.535C374.206 77.1897 377.224 75.8443 377.224 75.8443C387.955 73.49 385.943 82.2347 385.943 82.2347L392.741 85.7697L394.998 86.9435L396.674 91.9886Z" fill="black"/>
<path d="M397.345 91.316L394.998 97.0337L391.993 94.8172L383.596 88.6253L377.895 84.9255C369.847 78.8714 377.895 77.8624 377.895 77.8624C374.877 76.5171 377.895 75.1717 377.895 75.1717C388.626 72.8173 386.614 81.5621 386.614 81.5621L393.411 85.0971L395.668 86.2709L397.345 91.316Z" fill="#FFB9B9"/>
<path opacity="0.05" d="M397.345 91.3158L394.998 97.0336L391.993 94.8171C394.713 94.9147 397.925 93.5962 393.411 85.0969L395.668 86.2708L397.345 91.3158Z" fill="black"/>
<path d="M409.753 57.3457L410.4 59.9918L408.411 79.544L406.735 92.6612C406.735 92.6612 406.064 101.406 398.351 99.0517C390.638 96.6973 389.967 94.3429 389.967 94.3429C389.967 94.3429 401.034 98.0427 393.992 84.9255C393.992 84.9255 398.016 86.9435 397.345 81.5621C396.674 76.1807 397.345 66.7632 397.345 66.7632L409.753 57.3457Z" fill="#575A89"/>
<path opacity="0.05" d="M396.004 25.0573C396.004 28.3373 394.892 31.5199 392.851 34.083C390.811 36.6461 387.962 38.4375 384.773 39.1633C384.29 37.7641 383.948 36.3717 384.3 34.9557C384.981 32.2078 388.143 30.2032 387.791 27.3948C387.761 27.0786 387.652 26.7753 387.472 26.5136C386.765 25.5786 385.323 26.0427 384.176 26.2748C382.681 26.5232 381.148 26.2208 379.858 25.4232C378.568 24.6257 377.61 23.387 377.161 21.936C375.873 23.2067 374.26 24.0956 372.5 24.5046C370.74 24.9135 368.901 24.8266 367.187 24.2534C367.396 20.4932 369.059 16.9629 371.822 14.4132C374.586 11.8636 378.232 10.4956 381.985 10.6003C385.739 10.705 389.303 12.2741 391.921 14.9739C394.539 17.6737 396.004 21.2912 396.004 25.0573V25.0573Z" fill="black"/>
<path d="M377.497 21.2643C377.946 22.715 378.904 23.9535 380.193 24.7508C381.482 25.5481 383.016 25.8502 384.51 25.6013C385.658 25.3715 387.099 24.907 387.807 25.8422C387.987 26.1022 388.097 26.4049 388.125 26.7204C388.479 29.5307 385.317 31.5341 384.636 34.2832C383.934 37.1141 385.991 39.8483 386.428 42.732C386.668 44.3095 386.415 45.9165 386.433 47.5121C386.451 49.1077 386.808 50.8219 387.987 51.8929C389.167 52.964 391.347 52.9748 392.137 51.5898C395.91 53.5896 394.403 59.7882 397.269 62.9605C398.849 64.7102 401.449 65.131 403.792 64.9068C404.341 64.8985 404.875 64.7257 405.325 64.4105C405.714 64.0271 405.975 63.5336 406.075 62.9964C406.667 60.7513 406.565 58.379 405.783 56.1932C405.407 55.1484 404.868 54.092 405.007 52.99C405.178 52.1353 405.581 51.3443 406.171 50.7041C407.972 48.464 410.431 46.298 410.413 43.4201C410.395 40.5632 407.908 38.3713 406.979 35.6706C405.714 31.995 407.469 28.0574 408.191 24.2372C408.754 21.1383 408.637 17.9536 407.849 14.9044C407.061 11.8553 405.62 9.01492 403.627 6.58081C402.896 5.7008 402.047 4.84965 400.96 4.50034C399.305 3.96882 397.545 4.7073 395.821 4.92425C390.129 5.64036 384.951 0.643564 379.232 1.09089C378.853 1.10502 378.479 1.19019 378.131 1.34202C377.391 1.70258 376.99 2.49823 376.533 3.1841C374.008 6.96917 369.045 8.04776 365.154 10.3944C353.79 17.2474 368.807 29.6531 377.497 21.2643Z" fill="#3F3D56"/>
<path opacity="0.3" d="M351.738 251.75C347.819 253.496 342.63 252.265 341.948 249.347C341.127 253.2 347.261 255.09 351.738 253.095C357.774 250.404 370.182 243.341 370.182 243.341C370.182 243.341 370.182 242.819 370.165 242.005C369.804 242.211 357.684 249.099 351.738 251.75Z" fill="white"/>
<path opacity="0.3" d="M393.639 242.138C393.252 245.164 389.906 245.8 383.596 246.704C380.387 247.164 379.339 245.737 379.147 244.049C378.937 246.211 379.549 248.63 383.596 248.05C390.638 247.041 393.992 246.368 393.656 242.332C393.651 242.269 393.645 242.203 393.639 242.138Z" fill="white"/>
<g opacity="0.1">
<path opacity="0.1" d="M405.133 63.4246C402.79 63.6488 400.19 63.228 398.61 61.4783C395.744 58.306 397.251 52.1074 393.478 50.1076C392.688 51.4926 390.508 51.4818 389.328 50.4107C388.149 49.3397 387.792 47.6255 387.774 46.03C387.756 44.4344 388.009 42.8273 387.769 41.2498C387.332 38.3661 385.275 35.6319 385.977 32.801C386.658 30.0519 389.821 28.0485 389.466 25.2382C389.438 24.9227 389.328 24.62 389.148 24.36C388.44 23.4248 386.999 23.8893 385.851 24.1191C384.357 24.368 382.823 24.0659 381.534 23.2686C380.245 22.4713 379.288 21.2327 378.839 19.7821C371.07 27.2806 358.25 18.1645 363.732 11.2505C355.178 18.2231 369.212 29.1248 377.497 21.1274C377.946 22.5781 378.904 23.8166 380.193 24.6139C381.482 25.4112 383.015 25.7134 384.509 25.4644C385.657 25.2346 387.099 24.7701 387.806 25.7054C387.987 25.9653 388.097 26.2681 388.125 26.5836C388.479 29.3939 385.317 31.3972 384.635 34.1463C383.934 36.9772 385.99 39.7114 386.428 42.5952C386.668 44.1727 386.414 45.7797 386.432 47.3753C386.45 48.9709 386.808 50.685 387.987 51.7561C389.166 52.8271 391.346 52.838 392.136 51.4529C395.91 53.4527 394.403 59.6514 397.268 62.8237C398.849 64.5733 401.448 64.9941 403.792 64.77C404.341 64.7617 404.875 64.5888 405.325 64.2737C405.616 64.0074 405.83 63.6672 405.944 63.289C405.678 63.3579 405.407 63.4033 405.133 63.4246V63.4246Z" fill="black"/>
<path opacity="0.1" d="M377.874 1.70198C377.989 1.52926 378.101 1.34959 378.215 1.17163C378.187 1.18353 378.158 1.19199 378.131 1.20526C377.391 1.56584 376.99 2.36148 376.532 3.04734C376.375 3.28326 376.208 3.50896 376.033 3.72446C376.739 3.14187 377.359 2.4608 377.874 1.70198Z" fill="black"/>
</g>
<path opacity="0.1" d="M359.451 95.7908C359.451 95.7908 358.583 98.8178 364.284 100.163C369.985 101.509 359.451 95.7908 359.451 95.7908Z" fill="black"/>
<path opacity="0.1" d="M356.955 104.76C356.955 104.76 354.045 106.89 361.065 110.59C368.084 114.289 356.955 104.76 356.955 104.76Z" fill="black"/>
<path opacity="0.1" d="M350.423 140.3C350.423 140.3 358.324 138.057 359.404 134.694C360.483 131.33 350.423 140.3 350.423 140.3Z" fill="black"/>
<path opacity="0.1" d="M350.423 182.902C350.423 182.902 353.827 184.584 355.981 184.36C358.136 184.136 350.423 182.902 350.423 182.902Z" fill="black"/>
<path opacity="0.1" d="M351.617 187.611C351.617 187.611 353.156 188.396 355.981 188.508C358.807 188.62 351.617 187.611 351.617 187.611Z" fill="black"/>
<path d="M409.417 200.513C410.432 200.883 411.519 201.012 412.592 200.889C413.665 200.765 414.695 200.394 415.6 199.804C416.506 199.213 417.262 198.42 417.81 197.487C418.358 196.553 418.682 195.505 418.756 194.424C418.831 193.344 418.655 192.261 418.241 191.26C417.827 190.26 417.187 189.369 416.372 188.659C415.556 187.949 414.588 187.438 413.542 187.168C412.496 186.897 411.402 186.874 410.346 187.099L410.52 190.699L408.822 187.614C407.156 188.4 405.868 189.817 405.243 191.554C405.021 192.162 404.886 192.799 404.842 193.446C404.734 194.962 405.123 196.473 405.949 197.748C406.774 199.023 407.992 199.994 409.417 200.513V200.513Z" fill="#57B894"/>
<path d="M417.82 242.265C417.22 239.203 419.818 236.489 422.383 234.725C424.949 232.961 427.947 231.227 428.822 228.233C430.08 223.931 426.333 219.99 423.416 216.592C421.252 214.07 419.394 211.3 417.88 208.34C417.222 207.177 416.773 205.907 416.555 204.587C416.326 202.68 416.936 200.782 417.552 198.963C419.602 192.903 421.794 186.893 424.129 180.934" stroke="#3F3D56" stroke-miterlimit="10"/>
<path d="M409.704 199.586C410.719 199.956 411.806 200.085 412.879 199.962C413.952 199.839 414.982 199.467 415.887 198.877C416.793 198.287 417.549 197.494 418.097 196.56C418.645 195.626 418.969 194.578 419.044 193.498C419.118 192.417 418.942 191.334 418.528 190.333C418.114 189.333 417.474 188.442 416.659 187.732C415.844 187.022 414.875 186.511 413.829 186.241C412.783 185.97 411.689 185.947 410.633 186.173L410.808 189.773L409.11 186.687C407.443 187.473 406.155 188.89 405.53 190.627C405.308 191.235 405.173 191.872 405.129 192.519C405.022 194.036 405.41 195.546 406.236 196.821C407.062 198.097 408.279 199.067 409.704 199.586V199.586Z" stroke="#3F3D56" stroke-miterlimit="10"/>
<path d="M416.967 179.691C417.366 178.589 418.034 177.605 418.911 176.83C419.788 176.055 420.846 175.513 421.986 175.256L422.561 178.678L423.625 175.084C425.103 175.106 426.536 175.598 427.716 176.49C428.897 177.382 429.765 178.627 430.194 180.046C430.623 181.465 430.591 182.984 430.104 184.383C429.616 185.783 428.698 186.991 427.481 187.832C426.265 188.674 424.813 189.107 423.335 189.067C421.857 189.027 420.431 188.518 419.261 187.612C418.091 186.706 417.238 185.45 416.826 184.027C416.413 182.603 416.463 181.085 416.967 179.691V179.691Z" fill="#57B894"/>
<path d="M417.35 178.455C417.748 177.353 418.417 176.369 419.294 175.594C420.171 174.819 421.229 174.278 422.369 174.02L422.943 177.442L424.008 173.848C425.486 173.87 426.919 174.363 428.099 175.255C429.28 176.146 430.148 177.392 430.577 178.81C431.006 180.229 430.974 181.748 430.487 183.147C429.999 184.547 429.081 185.755 427.864 186.597C426.647 187.438 425.196 187.871 423.718 187.831C422.24 187.791 420.813 187.282 419.643 186.376C418.473 185.47 417.621 184.214 417.209 182.791C416.796 181.367 416.846 179.849 417.35 178.455V178.455Z" stroke="#3F3D56" stroke-miterlimit="10"/>
<path d="M422.192 216.662C423.802 217.247 425.57 217.218 427.16 216.58C428.749 215.942 430.049 214.74 430.812 213.203C431.575 211.665 431.747 209.9 431.295 208.243C430.844 206.587 429.8 205.155 428.363 204.22L427.545 206.982L426.965 203.52C426.96 203.517 426.954 203.515 426.948 203.513C425.209 202.88 423.291 202.966 421.616 203.752C419.941 204.538 418.645 205.959 418.015 207.702C417.384 209.446 417.47 211.369 418.253 213.05C419.037 214.73 420.453 216.029 422.192 216.662H422.192Z" fill="#57B894"/>
<path d="M422.524 215.41C424.133 215.996 425.902 215.967 427.491 215.329C429.081 214.691 430.381 213.488 431.144 211.951C431.907 210.413 432.079 208.648 431.627 206.991C431.175 205.335 430.132 203.903 428.695 202.969L427.877 205.731L427.297 202.268C427.291 202.265 427.286 202.263 427.279 202.261C426.419 201.948 425.505 201.808 424.59 201.849C423.675 201.89 422.777 202.111 421.948 202.5C421.119 202.889 420.374 203.439 419.756 204.116C419.138 204.794 418.659 205.587 418.347 206.451C418.034 207.314 417.895 208.231 417.936 209.148C417.977 210.066 418.197 210.966 418.585 211.798C418.973 212.63 419.52 213.377 420.196 213.997C420.872 214.617 421.663 215.097 422.524 215.41V215.41Z" stroke="#3F3D56" stroke-miterlimit="10"/>
<path d="M414.932 228.276C415.209 229.856 416.019 231.292 417.226 232.343C418.433 233.395 419.964 233.998 421.562 234.052C423.16 234.106 424.728 233.608 426.003 232.64C427.278 231.672 428.182 230.294 428.564 228.737C428.946 227.179 428.783 225.538 428.102 224.087C427.42 222.636 426.262 221.465 424.822 220.769C423.381 220.073 421.746 219.895 420.19 220.264C418.634 220.634 417.252 221.529 416.276 222.799L419.383 227.489L415.138 225C414.809 226.06 414.738 227.183 414.932 228.276V228.276Z" fill="#57B894"/>
<path d="M415.219 227.349C415.496 228.929 416.306 230.365 417.513 231.417C418.72 232.468 420.251 233.072 421.849 233.126C423.447 233.18 425.015 232.681 426.29 231.713C427.565 230.745 428.469 229.367 428.851 227.81C429.234 226.253 429.07 224.611 428.389 223.16C427.707 221.709 426.549 220.538 425.109 219.842C423.668 219.146 422.033 218.968 420.477 219.338C418.921 219.707 417.539 220.602 416.563 221.873L419.67 226.563L415.425 224.073C415.096 225.133 415.025 226.257 415.219 227.349V227.349Z" stroke="#3F3D56" stroke-miterlimit="10"/>
<path d="M408.138 246.411C408.138 246.411 414.291 243.993 416.146 242.668C418 241.344 425.611 239.762 426.072 241.886C426.532 244.011 435.319 252.451 428.372 252.507C421.425 252.563 412.23 253.65 410.379 252.52C408.528 251.389 408.138 246.411 408.138 246.411Z" fill="#656380"/>
<path opacity="0.2" d="M428.496 251.768C421.549 251.824 412.353 252.911 410.503 251.78C409.093 250.919 408.531 247.829 408.343 246.403C408.213 246.409 408.138 246.411 408.138 246.411C408.138 246.411 408.528 251.389 410.379 252.52C412.23 253.65 421.425 252.564 428.372 252.507C430.377 252.491 431.07 251.775 431.032 250.716C430.753 251.356 429.988 251.756 428.496 251.768Z" fill="black"/>
</g>
<defs>
<linearGradient id="paint0_linear" x1="376.356" y1="254.945" x2="376.356" y2="0" gradientUnits="userSpaceOnUse">
<stop stop-color="#808080" stop-opacity="0.25"/>
<stop offset="0.53514" stop-color="#808080" stop-opacity="0.12"/>
<stop offset="1" stop-color="#808080" stop-opacity="0.1"/>
</linearGradient>
<clipPath id="clip0">
<rect width="444" height="261" fill="white"/>
</clipPath>
</defs>
</svg>
