<svg width="475" height="405" viewBox="0 0 475 405" fill="none" xmlns="http://www.w3.org/2000/svg">
<g clip-path="url(#clip0)">
<path d="M427.836 225.248C427.759 231.291 427.482 238.062 426.861 245.195L444.28 223.49L444.402 223.829C442.977 218.93 440.867 214.257 438.136 209.947L438.274 210.266L427.836 225.248Z" fill="#57B894"/>
<path d="M427.848 224.188L437.959 209.675C435.052 205.299 431.571 201.91 427.595 199.843C427.388 199.736 427.18 199.636 426.973 199.536C427.127 201.172 427.97 210.78 427.848 224.188Z" fill="#57B894"/>
<path d="M446.458 266.315C446.886 263.784 447.218 261.259 447.455 258.74L421.187 279.358L421.152 279.176C420.757 280.663 420.344 282.125 419.915 283.561L446.396 265.914L446.458 266.315Z" fill="#57B894"/>
<path d="M424.183 265.474L447.693 243.7L447.785 244.077C447.483 237.344 446.383 230.67 444.51 224.196L426.759 246.315C426.147 252.998 425.288 259.385 424.183 265.474Z" fill="#57B894"/>
<path d="M426.313 245.939L394.866 214.709L395.002 214.327C392.452 218.395 390.319 222.71 388.636 227.206L424.423 261.124C425.275 255.823 425.883 250.702 426.313 245.939Z" fill="#57B894"/>
<path d="M423.602 265.869C423.842 264.574 424.068 263.288 424.279 262.009L388.36 227.966L388.493 227.582C387.899 229.166 387.341 230.801 386.82 232.487L386.95 232.101L423.602 265.869Z" fill="#57B894"/>
<path d="M421.375 278.311L447.424 257.865L447.5 258.255C447.911 253.688 448.014 249.099 447.807 244.519L423.979 266.588C423.22 270.644 422.351 274.552 421.375 278.311Z" fill="#57B894"/>
<path d="M384.324 264.483L413.778 298.606C415.777 294.13 417.505 289.538 418.953 284.855L383.505 251.711C383.428 256.115 383.646 260.52 384.158 264.895L384.324 264.483Z" fill="#57B894"/>
<path d="M426.471 199.535L426.71 199.411C420.526 196.556 414.053 197.275 408.018 200.882L427.364 224.191C427.493 209.685 426.485 199.679 426.471 199.535Z" fill="#57B894"/>
<path d="M419.165 286.001C417.831 290.217 416.269 294.357 414.486 298.402L441.209 282.566L441.26 282.96C443.132 279.336 444.538 275.49 445.443 271.513C445.791 269.948 446.102 268.382 446.373 266.814L419.576 284.671C419.439 285.115 419.304 285.562 419.165 286.001Z" fill="#57B894"/>
<path d="M427.352 225.272L407.562 201.427L407.714 201.063C403.186 203.848 398.913 208.263 395.205 214.012L426.397 244.989C427.005 237.936 427.277 231.245 427.352 225.272Z" fill="#57B894"/>
<path d="M419.207 284.033C420.927 278.347 422.34 272.572 423.439 266.733L386.697 232.883C386.002 235.17 385.378 237.543 384.828 240.003C384.07 243.527 383.636 247.113 383.531 250.717L419.181 284.05L419.207 284.033Z" fill="#57B894"/>
<path d="M457.053 320.657C453.136 325.262 448.602 330.3 443.571 335.399L470.84 329.784L470.717 330.124C472.745 325.442 474.103 320.498 474.751 315.437L474.653 315.771L457.053 320.657Z" fill="#57B894"/>
<path d="M473.08 300.937C472.99 300.722 472.894 300.513 472.797 300.304C471.872 301.662 466.39 309.599 457.738 319.848L474.788 315.115C475.342 309.892 474.824 305.063 473.08 300.937Z" fill="#57B894"/>
<path d="M417.486 357.931C416.233 358.825 414.982 359.688 413.735 360.52L445.393 363.808L445.185 364.156C447.13 362.48 448.997 360.747 450.787 358.957L417.397 358.094L417.486 357.931Z" fill="#57B894"/>
<path d="M428.566 349.311L460.57 347.525L460.4 347.874C464.464 342.496 467.877 336.655 470.566 330.475L442.778 336.196C438.041 340.953 433.303 345.325 428.566 349.311Z" fill="#57B894"/>
<path d="M418.21 357.407L451.322 358.263L451.131 358.613C454.363 355.358 457.371 351.888 460.135 348.229L427.698 350.038C424.524 352.678 421.361 355.134 418.21 357.407Z" fill="#57B894"/>
<path d="M378.796 376.038C379.016 375.788 379.239 375.533 379.469 375.268C386.129 373.805 392.588 371.546 398.706 368.539L398.229 344.804C398.46 344.184 398.683 343.559 398.898 342.93L399.406 368.197C403.802 366.023 408.064 363.587 412.169 360.904L406.554 316.962C406.782 316.826 407.014 316.687 407.251 316.544L412.858 360.429L412.888 360.432C417.842 357.149 422.616 353.602 427.188 349.806L421.343 306.586C421.569 306.4 421.794 306.212 422.02 306.023L427.866 349.244C428.877 348.4 429.872 347.553 430.851 346.703L425.558 302.915C425.782 302.709 426.006 302.5 426.229 302.291L431.526 346.113C435.566 342.573 439.303 339.017 442.674 335.622L438.386 291.524L438.734 291.317C437.527 291.708 436.304 292.151 435.072 292.637C437.279 289.801 439.238 286.781 440.925 283.609L413.946 299.597C412.24 303.35 410.287 306.987 408.1 310.483C407.621 310.99 407.145 311.505 406.674 312.032L406.743 312.569C406.534 312.88 406.323 313.189 406.111 313.496L406.02 312.782C405.752 313.091 405.486 313.406 405.221 313.721C408.413 309.189 411.171 304.365 413.458 299.316L384.219 265.442C384.587 268.589 385.078 271.75 385.657 274.879C382.896 270.935 379.617 267.38 375.907 264.311L376.137 264.572L370.844 282.044C372.64 287.815 374.47 294.34 376.086 301.316L385.802 275.653C385.876 276.041 385.951 276.428 386.027 276.815L376.336 302.412C377.821 308.958 378.979 315.297 379.812 321.429L391.965 299.672C392.059 299.97 392.153 300.265 392.247 300.559L379.962 322.551C380.494 326.643 380.877 330.628 381.111 334.505L396.205 312.013C396.308 312.291 396.41 312.563 396.51 312.83L381.256 335.558L381.166 335.396C381.251 336.933 381.311 338.45 381.346 339.949L398.579 318.142C398.694 318.425 398.8 318.686 398.898 318.925L381.367 341.109C381.375 341.574 381.385 342.04 381.388 342.501C381.424 346.922 381.219 351.342 380.774 355.74L382.448 353.838C382.151 354.556 381.863 355.264 381.582 355.961L380.63 357.043C380.555 357.698 380.471 358.347 380.385 358.993C380.06 359.83 379.748 360.646 379.448 361.442C379.692 359.946 379.902 358.441 380.078 356.927L341.795 333.743C352.822 357.747 372.263 380.062 373.507 381.478C374.343 379.674 375.097 377.829 375.77 375.942C375.998 375.907 376.227 375.87 376.455 375.832C376.376 376.058 376.299 376.286 376.218 376.511C376.099 376.53 375.979 376.553 375.86 376.572C375.959 376.593 376.062 376.616 376.171 376.639C375.692 377.96 375.181 379.251 374.638 380.512C375.403 379.739 376.551 378.545 377.941 377C386.735 378.709 410.327 382.078 429.886 373.949L398.903 369.067C392.517 372.216 385.762 374.558 378.796 376.038V376.038ZM398.054 336.102L398.745 335.317L398.767 336.432L398.076 337.217L398.054 336.102Z" fill="#57B894"/>
<path d="M472.411 299.983L472.674 300.04C469.735 293.899 464.29 290.327 457.34 289.258L457.363 319.542C466.721 308.452 472.331 300.103 472.411 299.983Z" fill="#57B894"/>
<path d="M411.599 361.921C407.882 364.318 404.037 366.511 400.081 368.49L430.77 373.326L430.558 373.663C434.313 372.065 437.851 369.998 441.086 367.512C442.353 366.53 443.591 365.521 444.801 364.486L412.765 361.159C412.377 361.414 411.988 361.672 411.599 361.921Z" fill="#57B894"/>
<path d="M443.345 334.944C448.315 329.9 452.794 324.919 456.665 320.367L456.641 289.388L456.99 289.204C451.725 288.463 445.617 289.14 439.092 291.204L443.345 334.944Z" fill="#57B894"/>
<path d="M375.654 264.108C371.536 260.843 367.177 258.696 362.757 257.959C362.527 257.92 362.298 257.889 362.07 257.859C362.723 259.367 366.497 268.243 370.527 281.032L375.654 264.108Z" fill="#57B894"/>
<path d="M375.795 302.193L336.228 282.206L336.24 281.801C335.072 286.457 334.379 291.22 334.169 296.015L378.694 317.218C377.864 311.913 376.859 306.855 375.795 302.193Z" fill="#57B894"/>
<path d="M378.831 318.104L334.142 296.823L334.149 296.417C334.074 298.107 334.049 299.834 334.075 301.599L334.08 301.192L379.381 321.984C379.209 320.679 379.026 319.385 378.831 318.104Z" fill="#57B894"/>
<path d="M380.832 341.476L336.869 320.905C338.158 325.117 339.727 329.239 341.568 333.241L341.598 332.798L380.164 356.153C380.68 351.278 380.903 346.377 380.832 341.476V341.476Z" fill="#57B894"/>
<path d="M361.592 258.013L361.781 257.821C355.018 257.015 349.084 259.699 344.46 264.993L370.068 281.185C365.704 267.35 361.651 258.144 361.592 258.013Z" fill="#57B894"/>
<path d="M370.391 282.217L344.195 265.653L344.227 265.259C340.782 269.307 338.084 274.825 336.336 281.439L375.581 301.263C373.978 294.368 372.167 287.92 370.391 282.217Z" fill="#57B894"/>
<path d="M380.819 340.616C380.696 334.677 380.254 328.749 379.493 322.857L334.081 302.013C334.127 304.403 334.268 306.853 334.505 309.362C334.875 312.948 335.571 316.492 336.586 319.952L380.8 340.64L380.819 340.616Z" fill="#57B894"/>
<path d="M343.814 235.401L211.92 218.786C205.942 169.092 214.974 120.578 230.393 72.3315L362.287 88.9464C342.384 136.278 336.542 185.13 343.814 235.401Z" fill="#F2F2F2"/>
<path d="M329.423 100.023L248.821 89.8693L247.729 98.5234L328.331 108.677L329.423 100.023Z" fill="#F8E71C"/>
<path opacity="0.3" d="M339.434 122.587L230.189 108.825L229.643 113.152L338.888 126.914L339.434 122.587Z" fill="#F8E71C"/>
<path opacity="0.3" d="M337.671 136.566L228.425 122.805L227.88 127.132L337.125 140.893L337.671 136.566Z" fill="#F8E71C"/>
<path opacity="0.3" d="M335.907 150.546L226.662 136.784L226.116 141.111L335.361 154.873L335.907 150.546Z" fill="#F8E71C"/>
<path opacity="0.3" d="M334.144 164.526L224.899 150.764L224.353 155.091L333.598 168.853L334.144 164.526Z" fill="#F8E71C"/>
<path opacity="0.3" d="M332.381 178.505L223.135 164.744L222.59 169.071L331.835 182.833L332.381 178.505Z" fill="#F8E71C"/>
<path opacity="0.3" d="M330.617 192.485L221.372 178.724L220.826 183.051L330.072 196.812L330.617 192.485Z" fill="#F8E71C"/>
<path opacity="0.3" d="M328.854 206.465L219.609 192.703L219.063 197.03L328.308 210.792L328.854 206.465Z" fill="#F8E71C"/>
<path d="M281.355 186.443L157.961 137.017C164.76 87.4286 185.781 42.7768 212.915 0L336.309 49.4267C305.07 90.1851 287.049 135.97 281.355 186.443Z" fill="#E6E6E6"/>
<path d="M301.71 51.8319L226.302 21.6267L223.055 29.7232L298.463 59.9283L301.71 51.8319Z" fill="#F8E71C"/>
<path opacity="0.3" d="M305.682 76.1933L203.477 35.254L201.853 39.3023L304.059 80.2415L305.682 76.1933Z" fill="#F8E71C"/>
<path opacity="0.3" d="M300.437 89.2721L198.231 48.3329L196.608 52.3811L298.813 93.3204L300.437 89.2721Z" fill="#F8E71C"/>
<path opacity="0.3" d="M295.191 102.351L192.986 61.4117L191.362 65.46L293.568 106.399L295.191 102.351Z" fill="#F8E71C"/>
<path opacity="0.3" d="M289.946 115.43L187.74 74.4906L186.116 78.5388L288.322 119.478L289.946 115.43Z" fill="#F8E71C"/>
<path opacity="0.3" d="M284.7 128.509L182.494 87.5695L180.871 91.6177L283.076 132.557L284.7 128.509Z" fill="#F8E71C"/>
<path opacity="0.3" d="M279.454 141.588L177.249 100.648L175.625 104.697L277.831 145.636L279.454 141.588Z" fill="#F8E71C"/>
<path opacity="0.3" d="M274.209 154.666L172.003 113.727L170.38 117.775L272.585 158.715L274.209 154.666Z" fill="#F8E71C"/>
<path d="M250.839 198.347H117.902C105.752 149.791 108.641 100.529 117.902 50.7343H250.839C237.017 100.182 237.334 149.38 250.839 198.347Z" fill="#F2F2F2"/>
<path d="M219.619 65.8311H138.38V74.5536H219.619V65.8311Z" fill="#F8E71C"/>
<path opacity="0.3" d="M232.376 86.9666H122.266V91.3279H232.376V86.9666Z" fill="#F8E71C"/>
<path opacity="0.3" d="M232.376 101.057H122.266V105.418H232.376V101.057Z" fill="#F8E71C"/>
<path opacity="0.3" d="M232.376 115.147H122.266V119.508H232.376V115.147Z" fill="#F8E71C"/>
<path opacity="0.3" d="M232.376 129.238H122.266V133.599H232.376V129.238Z" fill="#F8E71C"/>
<path opacity="0.3" d="M232.376 143.328H122.266V147.689H232.376V143.328Z" fill="#F8E71C"/>
<path opacity="0.3" d="M232.376 157.418H122.266V161.779H232.376V157.418Z" fill="#F8E71C"/>
<path opacity="0.3" d="M232.376 171.509H122.266V175.87H232.376V171.509Z" fill="#F8E71C"/>
<path d="M161.232 168.879L115.434 133.296C114.976 132.5 114.315 131.838 113.52 131.378C112.724 130.918 111.821 130.676 110.902 130.676H86.1833C84.7968 130.676 83.467 131.227 82.4865 132.206C81.5061 133.186 80.9553 134.515 80.9553 135.901V353.928C80.9553 358.423 82.7419 362.733 85.9221 365.911C89.1023 369.09 93.4155 370.875 97.913 370.875H351.658C353.885 370.875 356.09 370.437 358.147 369.585C360.204 368.733 362.074 367.485 363.648 365.911C365.223 364.338 366.472 362.47 367.324 360.414C368.177 358.357 368.615 356.154 368.615 353.928V184.282C368.615 180.197 366.991 176.279 364.101 173.39C361.21 170.502 357.29 168.879 353.202 168.879H161.232Z" fill="#3F3D56"/>
<path d="M359.986 219.441H313.96V235.539H359.986V219.441Z" fill="#F8E71C"/>
<path d="M0 404C0 404 210.502 283.692 464.694 404Z" fill="#F2F2F2"/>
<path d="M45.0839 127.916C45.0839 127.916 47.3432 139.882 45.7617 140.785C44.4844 141.588 43.2754 142.494 42.1469 143.495L46.2136 149.139L55.9283 151.171L65.1911 142.592V134.012C65.1911 134.012 62.4801 129.722 62.9319 127.013C63.3838 124.304 45.0839 127.916 45.0839 127.916Z" fill="#FBBEBE"/>
<path opacity="0.1" d="M45.0839 127.916C45.0839 127.916 47.3432 139.882 45.7617 140.785C44.4844 141.588 43.2754 142.494 42.1469 143.495L46.2136 149.139L55.9283 151.171L65.1911 142.592V134.012C65.1911 134.012 62.4801 129.722 62.9319 127.013C63.3838 124.304 45.0839 127.916 45.0839 127.916Z" fill="black"/>
<path d="M29.4952 148.462L28.1396 149.139C28.1396 149.139 25.2026 150.268 23.8471 159.977C22.4915 169.685 19.3286 192.94 20.2323 193.618C21.136 194.295 20.6842 198.81 20.6842 198.81L27.4619 163.363L29.4952 148.462Z" fill="#2F2E41"/>
<path d="M45.5605 93.3594C45.3538 93.7904 45.2814 94.2936 45.0875 94.7327C44.207 96.7266 41.7003 96.2804 39.8924 97.0346C38.3612 97.6733 37.2184 99.4272 37.0986 101.322C37.0477 102.127 37.1658 102.938 37.0934 103.741C36.9597 105.223 36.1951 106.528 35.9229 107.984C35.2618 111.521 36.8044 117.107 38.5463 115.198C39.0956 114.596 39.7831 114.197 40.3765 113.655C41.9174 112.248 42.7021 110.01 43.9538 108.254C44.1121 107.997 44.3301 107.781 44.5893 107.625C45.5039 107.171 46.3181 108.386 47.0411 109.183C47.409 109.585 47.8584 109.903 48.3591 110.118C48.8599 110.333 49.4006 110.438 49.9454 110.428C50.4902 110.417 51.0265 110.291 51.5187 110.058C52.0109 109.824 52.4477 109.489 52.8001 109.073C53.0207 108.752 53.2952 108.472 53.6114 108.245C53.9642 108.083 54.3613 108.044 54.7389 108.134C56.5217 108.448 58.1278 109.404 59.2533 110.82C59.857 111.559 60.3618 112.428 61.0855 113C61.8091 113.573 62.8649 113.761 63.5166 113.081C64.8282 114.007 65.3175 115.975 65.3209 117.766C65.3244 119.558 64.9571 121.337 65.0467 123.126C65.1363 124.914 65.8389 126.844 67.265 127.501C67.4895 125.872 68.3353 124.393 69.6254 123.374C70.5967 122.651 71.7773 122.293 72.5987 121.35C74.2432 119.462 73.7221 116.322 73.7853 113.629C73.8632 110.307 75.0151 107.132 75.2186 103.817C75.3203 102.161 75.1491 100.385 74.2767 99.074C73.6164 98.2006 72.7794 97.4759 71.8202 96.9473L64.0657 91.9756C63.7214 91.7213 63.3309 91.5362 62.9161 91.4305C61.7745 91.2258 60.7878 92.2958 59.7056 92.7672C58.803 93.0871 57.8408 93.2037 56.8879 93.1088C53.8775 93.0273 53.0302 93.6115 51.0067 91.6514C50.8492 91.4924 50.6566 91.3727 50.4442 91.3019C50.2319 91.2311 50.0059 91.2113 49.7845 91.2439C48.5742 91.4357 46.2226 91.9786 45.5605 93.3594Z" fill="#2F2E41"/>
<path d="M49.8284 366.112L54.5725 376.498L45.3096 379.659L40.5654 377.175L41.6953 366.112H49.8284Z" fill="#FBBEBE"/>
<path d="M45.5358 374.917C45.5358 374.917 38.0803 370.402 36.7247 371.982C35.3692 373.563 24.5249 385.077 24.5249 385.077C24.5249 385.077 7.80651 394.109 20.6842 395.463C33.5618 396.818 54.5727 387.561 54.5727 387.561C54.5727 387.561 55.7023 375.369 54.7986 375.143C53.895 374.917 50.0542 377.175 48.2469 376.498C47.2487 376.153 46.3277 375.616 45.5358 374.917V374.917Z" fill="#2F2E41"/>
<path d="M62.0281 377.175V386.432L49.8284 383.723L52.5393 374.24L62.0281 377.175Z" fill="#FBBEBE"/>
<path d="M49.6024 380.336C49.6024 380.336 62.0282 378.304 63.1578 384.4C64.2874 390.496 67.2244 399.527 64.2874 401.785C61.3504 404.043 46.2135 406.978 45.9876 403.14C45.7617 399.301 47.5691 391.851 47.5691 391.851C47.5691 391.851 48.6987 385.981 48.0209 384.4C47.3432 382.82 49.6024 380.336 49.6024 380.336Z" fill="#2F2E41"/>
<path d="M24.7839 227.878C24.7839 227.878 14.5842 292.508 22.9434 324.117C31.3026 355.726 37.1766 374.466 37.1766 374.466C37.1766 374.466 51.6357 370.402 51.6357 367.693C51.6357 364.983 45.9876 324.795 44.6321 320.956C43.2766 317.118 41.0173 315.764 43.0506 312.603C45.0839 309.442 48.4728 289.122 48.4728 289.122C48.4728 289.122 55.9283 322.763 56.3801 323.666C56.832 324.569 51.6357 376.272 51.6357 376.272C51.6357 376.272 66.5491 387.088 67.4504 378.981C67.6763 376.949 77.6169 304.926 77.6169 304.023C77.6169 303.12 81.6836 234.032 75.1318 230.645C68.58 227.259 24.7839 227.878 24.7839 227.878Z" fill="#2F2E41"/>
<path d="M53.8949 132.432C62.3796 132.432 69.2577 125.558 69.2577 117.079C69.2577 108.6 62.3796 101.726 53.8949 101.726C45.4103 101.726 38.5321 108.6 38.5321 117.079C38.5321 125.558 45.4103 132.432 53.8949 132.432Z" fill="#FBBEBE"/>
<path d="M50.5061 147.559V145.978L45.9876 138.528C45.9876 138.528 41.4691 138.979 40.7914 141.011C40.1136 143.043 32.4322 159.299 32.4322 159.299L24.299 232.226C24.299 232.226 46.6654 237.644 50.0542 233.806C53.4431 229.968 66.3207 146.43 66.3207 146.43L68.1281 136.27C68.1281 136.27 65.0247 131.754 64.3172 132.432C63.6097 133.109 51.8616 146.204 51.8616 146.204L51.6357 148.236L50.5061 147.559Z" fill="#F8E71C"/>
<path d="M45.8747 137.06C45.8747 137.06 41.6951 136.044 40.3395 138.528C38.984 141.011 38.984 141.914 37.6284 142.817C36.2729 143.721 28.3656 147.785 27.9137 149.365C27.4619 150.945 17.7472 200.842 17.7472 200.842C17.7472 200.842 13.0028 215.744 15.262 225.904C17.5212 236.064 15.9398 238.096 20.6842 238.999C25.4286 239.902 26.1063 239.902 26.1063 238.547C26.1063 237.193 32.2063 191.36 36.4988 188.199C40.7914 185.038 39.6618 150.494 39.6618 150.494C39.6618 150.494 45.7617 143.043 45.7617 141.914C45.7617 140.785 46.7783 136.975 45.8747 137.06Z" fill="#2F2E41"/>
<path d="M58.6394 145.301C59.2697 145.406 67.9022 134.238 68.58 134.689C69.2578 135.141 72.6466 141.011 73.0985 141.011C73.5503 141.011 92.7538 145.753 94.3353 154.558C95.9168 163.363 83.265 191.36 83.265 191.36C83.265 191.36 77.8429 207.39 78.9725 214.389C79.7389 219.719 79.5861 225.141 78.5206 230.419C78.0688 232.226 76.4873 234.258 76.9392 235.161C77.391 236.064 66.9985 234.032 62.706 236.515C58.4134 238.999 39.2099 240.805 40.3395 238.096C41.4692 235.387 42.147 224.775 45.3099 213.486C48.4728 202.197 56.606 175.555 55.2505 173.749C53.895 171.943 57.2838 145.075 58.6394 145.301Z" fill="#2F2E41"/>
<path d="M91.6242 151.849L94.5612 154.558C94.5612 154.558 97.95 160.428 97.4982 163.138C97.0463 165.847 106.987 206.713 102.92 208.067C98.8537 209.422 89.139 216.195 88.0094 218.002C86.8798 219.808 84.1687 222.969 82.3613 223.872C80.5539 224.775 78.7465 226.355 77.6169 225.452C76.4873 224.549 74.0021 206.035 75.8095 205.358C77.6169 204.681 79.4243 202.649 81.2317 202.649C83.0391 202.649 84.1687 200.842 84.1687 199.262C84.1687 197.682 82.8132 188.199 82.8132 188.199L79.8762 165.847L91.6242 151.849Z" fill="#2F2E41"/>
<path d="M48.2709 95.606C48.0881 95.9318 48.024 96.3122 47.8526 96.6441C47.074 98.1514 44.8577 97.8141 43.2591 98.3843C42.5834 98.6369 41.993 99.0752 41.556 99.6488C41.1189 100.222 40.853 100.908 40.7888 101.626C40.7439 102.234 40.8482 102.847 40.7842 103.454C40.666 104.574 39.9899 105.561 39.7492 106.662C39.1647 109.335 40.5287 113.558 42.0689 112.115C42.5546 111.66 43.1625 111.358 43.6871 110.949C45.0496 109.885 45.7435 108.193 46.8502 106.866C46.9973 106.665 47.1898 106.502 47.4121 106.39C48.2208 106.047 48.9407 106.966 49.58 107.568C50.2874 108.189 51.2007 108.524 52.1421 108.509C53.0835 108.494 53.9854 108.129 54.6721 107.485C54.8737 107.237 55.1163 107.025 55.3895 106.859C55.7068 106.736 56.053 106.707 56.3865 106.775C57.9076 106.984 59.3137 107.7 60.378 108.806C60.8582 109.411 61.4012 109.963 61.9981 110.453C62.6379 110.886 63.5715 111.029 64.1477 110.514C65.3074 111.215 65.74 112.702 65.7431 114.056C65.7462 115.411 65.4215 116.756 65.5007 118.108C65.5799 119.46 66.2011 120.919 67.4621 121.415C67.5779 120.78 67.8229 120.176 68.1819 119.639C68.5409 119.102 69.0063 118.645 69.5492 118.295C70.408 117.749 71.4518 117.479 72.1781 116.766C73.6322 115.339 73.1715 112.965 73.2273 110.929C73.2962 108.418 74.3147 106.017 74.4947 103.512C74.5846 102.259 74.4332 100.917 73.6619 99.926C73.0545 99.2483 72.3155 98.7014 71.4898 98.3183L64.6332 94.5599C64.321 94.3645 63.977 94.2251 63.6167 94.1479C62.6073 93.9931 61.7349 94.8019 60.778 95.1584C59.9713 95.4011 59.1259 95.4887 58.2866 95.4166C55.6248 95.3549 54.8756 95.7966 53.0864 94.3149C52.9374 94.1917 52.7644 94.1007 52.5784 94.0476C52.3923 93.9946 52.1974 93.9807 52.0057 94.0068C50.9356 94.1517 48.8563 94.5621 48.2709 95.606Z" fill="#2F2E41"/>
</g>
<defs>
<clipPath id="clip0">
<rect width="475" height="405" fill="white"/>
</clipPath>
</defs>
</svg>
