<svg width="24" height="24" viewBox="0 0 24 24" fill="none" xmlns="http://www.w3.org/2000/svg">
<path fill-rule="evenodd" clip-rule="evenodd" d="M12 0C18.623 0 24 5.377 24 12C24 18.623 18.623 24 12 24C5.377 24 0 18.623 0 12C0 5.377 5.377 0 12 0ZM12 1C18.071 1 23 5.929 23 12C23 18.071 18.071 23 12 23C5.929 23 1 18.071 1 12C1 5.929 5.929 1 12 1ZM12.053 18C12.519 18 12.897 17.622 12.897 17.155C12.897 16.689 12.519 16.311 12.053 16.311C11.587 16.311 11.208 16.689 11.208 17.155C11.208 17.622 11.587 18 12.053 18ZM12.521 15.178H11.523C11.488 14.016 11.705 13.124 12.462 12.235C12.953 11.665 14.069 10.756 14.407 10.177C15.129 8.948 14.484 7 12.136 7C10.697 7 9.521 7.877 9.208 9.507L8.19 9.405C8.47 7.169 10.148 6 12.112 6C14.076 6 15.727 7.25 15.727 9.22C15.727 11.026 13.901 12.002 13.089 13.088C12.667 13.651 12.534 14.465 12.521 15.178Z" fill="#F8A01C"/>
</svg>
