<svg width="572" height="405" viewBox="0 0 572 405" fill="none" xmlns="http://www.w3.org/2000/svg">
<g clip-path="url(#clip0)">
<path d="M442.232 159.94C419.002 68.6342 338.736 2.72405 244.52 0.0804577C194.712 -1.31713 142.299 15.1952 104.138 72.9778C35.9227 176.27 108.33 247.649 158.811 281.566C183.2 297.986 205.175 317.729 224.101 340.223C258.199 380.669 323.796 430.928 401.919 352.179C458.542 295.102 457.705 220.759 442.232 159.94Z" fill="#F2F2F2"/>
<path d="M286 405C443.953 405 572 397.594 572 388.457C572 379.321 443.953 371.915 286 371.915C128.047 371.915 0 379.321 0 388.457C0 397.594 128.047 405 286 405Z" fill="#E5E5E5"/>
<path opacity="0.1" d="M102.919 393.11C136.337 393.11 163.429 389.87 163.429 385.873C163.429 381.875 136.337 378.635 102.919 378.635C69.4999 378.635 42.4087 381.875 42.4087 385.873C42.4087 389.87 69.4999 393.11 102.919 393.11Z" fill="black"/>
<path opacity="0.1" d="M464.427 396.212C497.845 396.212 524.937 392.971 524.937 388.974C524.937 384.977 497.845 381.737 464.427 381.737C431.008 381.737 403.917 384.977 403.917 388.974C403.917 392.971 431.008 396.212 464.427 396.212Z" fill="black"/>
<path d="M374 10C327 1.38333 307.842 25.4736 285.066 42C262.289 25.4736 236 -3.33928 189 21C133 50 129.868 124.89 152.179 187.908C172.959 246.604 271.627 294.487 285.066 300.78C285.293 301.243 285.414 301.483 285.414 301.483C285.414 301.483 285.618 301.391 286 301.215C286.382 301.391 286.586 301.483 286.586 301.483C286.586 301.483 286.707 301.243 286.934 300.78C300.373 294.487 399.04 246.604 419.821 187.908C442.132 124.89 434 21 374 10Z" fill="#72BE65"/>
<path d="M318.582 183.742L291.891 234.48L290.631 201.297L302.55 169.784L290.364 194.265L288.662 149.422L304.618 107.232L288.304 140.007L286 79.3164L282.181 179.91L247.212 113.436L281.978 185.255L280.004 237.231L251.866 183.742L279.841 241.532L275.656 351.754H296.344L292.046 238.56L318.582 183.742Z" fill="#3F3D56"/>
<path opacity="0.1" d="M385.298 367.384C385.298 399.535 340.464 389.59 285.568 389.59C230.672 389.59 186.504 399.535 186.504 367.384C186.504 335.232 231.332 328.239 286.228 328.239C341.124 328.239 385.298 335.232 385.298 367.384Z" fill="black"/>
<path d="M385.298 359.467C385.298 391.619 340.464 381.674 285.568 381.674C230.672 381.674 186.504 391.619 186.504 359.467C186.504 327.316 231.332 320.323 286.228 320.323C341.124 320.323 385.298 327.316 385.298 359.467Z" fill="#3F3D56"/>
<path d="M159.165 264.315C159.165 264.315 151.788 281.368 159.165 281.829C166.543 282.29 167.004 264.315 167.004 264.315H159.165Z" fill="#FFB9B9"/>
<path d="M103.834 257.862L116.744 319.161L123.661 349.581H140.721L122.278 256.018L103.834 257.862Z" fill="#2F2E41"/>
<path opacity="0.1" d="M103.834 257.862L116.744 319.161L123.661 349.581H140.721L122.278 256.018L103.834 257.862Z" fill="black"/>
<path d="M123.661 350.502V357.877L133.344 359.72L134.266 352.346L123.661 350.502Z" fill="#FFB9B9"/>
<path d="M135.188 357.416L122.278 356.494C122.278 356.494 118.589 372.625 118.589 374.008C118.589 375.391 109.828 389.217 115.822 390.139C121.817 391.061 130.577 391.983 131.5 389.217C132.422 386.452 132.422 378.617 134.266 375.391C136.11 372.164 137.955 368.477 137.494 366.634L135.188 357.416Z" fill="#2F2E41"/>
<path d="M125.966 259.706C125.966 259.706 112.134 287.36 115.822 309.483C119.511 331.606 119.511 352.346 120.433 353.268C121.355 354.189 138.877 355.572 138.877 355.572C138.877 355.572 139.338 313.631 137.955 309.022C136.572 304.413 145.793 279.063 149.482 272.611C153.171 266.158 125.966 259.706 125.966 259.706Z" fill="#2F2E41"/>
<path d="M109.367 160.152C109.367 160.152 89.5401 156.004 92.3067 166.605C95.0732 177.206 106.139 179.971 106.139 179.971L109.367 160.152Z" fill="#F8A01C"/>
<path d="M113.978 214.077C113.978 214.077 104.295 217.303 104.295 233.896C104.295 250.488 99.6842 262.932 104.295 263.393C108.906 263.854 135.649 264.315 135.649 264.315L113.978 214.077Z" fill="#F8A01C"/>
<path d="M116.744 167.527L128.733 158.309L145.332 164.3L156.399 161.996L163.315 172.136L148.56 183.197L128.733 189.189L115.822 179.971L116.744 167.527Z" fill="#F8A01C"/>
<path d="M132.422 149.091C132.422 149.091 132.883 156.926 130.577 158.309C128.272 159.691 151.788 162.918 151.788 162.918L153.632 150.474L132.422 149.091Z" fill="#FFB9B9"/>
<path opacity="0.1" d="M132.422 149.091C132.422 149.091 132.883 156.926 130.577 158.309C128.272 159.691 151.788 162.918 151.788 162.918L153.632 150.474L132.422 149.091Z" fill="black"/>
<path d="M144.871 158.309C153.784 158.309 161.009 151.087 161.009 142.177C161.009 133.268 153.784 126.046 144.871 126.046C135.958 126.046 128.733 133.268 128.733 142.177C128.733 151.087 135.958 158.309 144.871 158.309Z" fill="#FFB9B9"/>
<path d="M160.087 172.136L166.312 172.366C166.312 172.366 171.615 172.136 172.537 196.102C173.459 220.069 172.537 253.714 172.537 253.714C172.537 253.714 175.303 270.767 167.926 269.846C160.548 268.924 153.171 269.385 156.399 266.619C159.626 263.854 161.009 248.183 161.009 248.183L153.632 191.954L160.087 172.136Z" fill="#F8A01C"/>
<path d="M128.733 159.182C128.733 159.182 111.211 157.848 108.445 159.231C105.678 160.613 103.373 173.979 103.373 173.979L102.912 184.58C102.912 184.58 105.955 206.708 109.506 207.397C113.056 208.086 112.595 211.773 110.75 213.155C108.906 214.538 125.505 285.055 130.577 285.516C135.649 285.977 141.182 279.524 141.182 279.524C141.182 279.524 151.327 277.22 153.632 275.376C155.937 273.533 158.704 220.53 154.554 219.608C154.554 219.608 149.943 218.686 150.404 217.303C150.865 215.921 156.694 213.282 156.694 213.282L154.554 191.954C154.554 191.954 157.782 173.979 166.081 172.136C166.081 172.136 162.393 167.527 161.009 167.527C159.626 167.527 150.865 169.37 148.099 172.136C145.332 174.901 142.566 183.658 136.11 179.971C129.655 176.284 124.583 170.292 125.966 167.527C127.35 164.761 128.733 159.182 128.733 159.182Z" fill="#3F3D56"/>
<path d="M98.2614 123.559C100.038 125.038 101.833 126.538 103.084 128.309C104.718 130.621 105.341 133.284 105.56 135.913C105.744 138.127 105.612 140.479 104.08 142.354C102.974 143.709 101.195 144.736 100.456 146.233C99.6406 147.885 100.281 149.764 101.331 151.336C102.38 152.908 103.824 154.314 104.757 155.929C105.431 157.071 105.826 158.356 105.91 159.679C105.993 161.002 105.762 162.326 105.236 163.543C104.253 165.814 102.236 168.032 102.879 170.374C103.401 172.274 105.623 174.173 104.428 175.882C103.762 176.834 102.251 177.23 100.855 177.321C97.4422 177.544 93.9282 176.358 91.8186 174.272C89.7304 172.208 88.7011 169.197 85.5187 168.293C84.3506 167.962 83.0535 167.985 81.8829 167.658C80.7997 167.353 79.8334 166.73 79.1092 165.869C78.3851 165.008 77.9366 163.949 77.822 162.83C77.464 159.483 79.58 156.278 82.0337 153.506C83.8069 151.51 85.7382 149.66 87.809 147.973C90.736 145.582 94.0842 143.348 95.7684 140.325C97.7028 136.853 97.0247 132.592 94.0592 129.586C92.9606 128.472 91.5793 127.524 90.6379 126.327C89.5049 124.887 87.5317 119.734 89.8742 118.512C92.4346 117.177 96.837 122.373 98.2614 123.559Z" fill="#3F3D56"/>
<path d="M73.4019 334.371L68.791 364.329C68.791 364.329 76.6296 383.226 83.5459 383.226C90.4623 383.226 94.6122 382.304 94.6122 381.382C94.6122 380.46 90.0012 374.93 87.6958 374.008C85.3903 373.086 83.0848 362.946 83.0848 360.181C83.0848 357.416 85.3903 334.371 85.3903 334.371H73.4019Z" fill="#A0616A"/>
<path opacity="0.1" d="M73.4019 334.371L68.791 364.329C68.791 364.329 76.6296 383.226 83.5459 383.226C90.4623 383.226 94.6122 382.304 94.6122 381.382C94.6122 380.46 90.0012 374.93 87.6958 374.008C85.3903 373.086 83.0848 362.946 83.0848 360.181C83.0848 357.416 85.3903 334.371 85.3903 334.371H73.4019Z" fill="black"/>
<path d="M84.9292 362.946C84.9292 362.946 70.1742 360.642 68.791 359.72C67.4077 358.798 62.7968 377.695 70.1742 383.226C77.5517 388.757 82.6237 387.835 84.007 387.835C85.3903 387.835 92.3067 387.835 93.6899 386.913C95.0732 385.991 95.9954 380.46 94.6121 378.156C93.2289 375.852 87.6957 373.547 87.2346 371.243C86.7735 368.938 84.9292 362.946 84.9292 362.946Z" fill="#2F2E41"/>
<path opacity="0.1" d="M84.9292 362.946C84.9292 362.946 70.1742 360.642 68.791 359.72C67.4077 358.798 62.7968 377.695 70.1742 383.226C77.5517 388.757 82.6237 387.835 84.007 387.835C85.3903 387.835 92.3067 387.835 93.6899 386.913C95.0732 385.991 95.9954 380.46 94.6121 378.156C93.2289 375.852 87.6957 373.547 87.2346 371.243C86.7735 368.938 84.9292 362.946 84.9292 362.946Z" fill="black"/>
<path d="M62.7968 335.754C62.7968 335.754 63.2579 354.65 55.4193 357.416C47.5807 360.181 64.18 371.703 64.18 371.703L71.5575 365.712L77.0906 332.527L62.7968 335.754Z" fill="#A0616A"/>
<path d="M58.6469 350.502C58.6469 350.502 60.1642 363.69 71.6245 360.553C71.6245 360.553 72.9408 377.695 74.7852 380C76.6295 382.304 81.7016 389.218 73.4019 389.218C65.1022 389.218 59.5691 388.757 56.8026 385.53C54.036 382.304 47.5807 374.93 45.7363 374.008C43.892 373.086 51.7305 353.268 53.1138 353.268C54.4971 353.268 58.6469 350.502 58.6469 350.502Z" fill="#2F2E41"/>
<path d="M52.6527 240.348C52.6527 240.348 50.3473 251.871 56.3415 265.237C62.3357 278.603 67.8688 310.404 65.1022 315.013C62.3357 319.622 57.2637 338.98 62.3357 341.745C67.4077 344.511 102.451 346.354 104.756 343.589C107.062 340.823 104.756 311.326 100.606 307.178C96.4565 303.03 103.834 257.862 103.834 257.862L101.529 247.262L52.6527 240.348Z" fill="#3F3D56"/>
<path d="M86.7736 154.622C95.6865 154.622 102.912 147.399 102.912 138.49C102.912 129.581 95.6865 122.359 86.7736 122.359C77.8607 122.359 70.6353 129.581 70.6353 138.49C70.6353 147.399 77.8607 154.622 86.7736 154.622Z" fill="#A0616A"/>
<path d="M76.6295 144.021C76.6295 144.021 70.6353 158.77 62.3357 160.613C54.036 162.457 51.7306 189.189 51.7306 189.189L89.5401 181.814L101.067 176.745C101.067 176.745 101.99 165.683 97.8398 163.379C93.69 161.074 85.3903 161.996 85.3903 161.996C85.3903 161.996 85.3903 152.778 89.5401 150.935C93.69 149.091 76.6295 144.021 76.6295 144.021Z" fill="#A0616A"/>
<path d="M76.6295 178.127C76.6295 178.127 75.7074 160.152 62.3357 162.457C62.3357 162.457 59.5691 161.535 53.5749 170.292L51.7306 166.605C51.7306 166.605 59.5691 159.353 64.18 159.983C68.791 160.613 71.5575 157.848 81.2405 178.127L94.6121 176.284L93.2288 160.152H94.6121L98.3009 173.979C98.3009 173.979 103.373 173.979 103.834 178.127V182.275C103.834 182.275 111.673 187.806 110.289 199.789C108.906 211.773 108.445 222.373 108.445 222.373C108.445 222.373 106.601 238.044 108.445 243.575C110.289 249.105 120.894 263.854 112.595 265.237C104.295 266.619 101.067 266.619 101.067 266.619L99.2231 254.636C99.2231 254.636 100.606 259.706 91.8456 260.167C83.0848 260.628 57.2637 253.253 57.2637 252.332C57.2637 251.41 58.1858 242.192 55.8804 244.035C53.5749 245.879 52.6527 255.558 49.4251 255.558C46.1975 255.558 54.4971 217.764 54.4971 217.764L51.7306 189.189V185.963C51.7306 185.963 69.7131 187.806 76.6295 178.127Z" fill="#5385F7"/>
<path d="M61.4135 164.761C61.4135 164.761 51.7306 173.057 50.8084 199.329C49.8862 225.6 80.3183 247.723 80.3183 247.723C80.3183 247.723 88.618 275.376 94.6121 268.924C100.606 262.471 86.7736 241.27 86.7736 241.27L65.5633 213.155L72.0186 172.136C72.0186 172.136 72.0186 162.457 61.4135 164.761Z" fill="#A0616A"/>
<path d="M53.2417 178.785C53.2417 178.785 49.4251 179.51 48.5029 185.502C47.5807 191.493 52.1916 197.024 54.4971 197.024C56.8026 197.024 79.3961 192.876 82.1627 189.189C84.9292 185.502 92.3067 186.884 92.3067 186.884L76.6295 178.588C76.6295 178.588 65.166 189.029 52.2236 184.961L53.2417 178.785Z" fill="#5385F7"/>
<path d="M104.757 155.929C103.824 154.314 102.38 152.908 101.331 151.336C100.527 150.253 100.095 148.94 100.097 147.592C98.6203 149.755 96.638 151.525 94.3221 152.75C92.0063 153.975 89.4266 154.617 86.8066 154.621C85.3922 157.961 85.3903 162.457 85.3903 162.457C85.3903 162.457 88.0961 167.54 84.924 168.156C85.1247 168.195 85.3239 168.238 85.5186 168.293C88.7011 169.198 89.7304 172.208 91.8186 174.272C93.9281 176.358 97.4421 177.544 100.855 177.321C102.251 177.23 103.762 176.834 104.428 175.882C105.623 174.173 103.401 172.274 102.879 170.374C102.236 168.032 104.253 165.814 105.236 163.543C105.762 162.326 105.993 161.002 105.91 159.679C105.826 158.356 105.431 157.071 104.757 155.929V155.929Z" fill="#3F3D56"/>
<path d="M70.989 116.327C69.3258 117.057 67.7728 118.015 66.3752 119.175C62.8631 121.96 59.8125 125.456 58.1431 129.614C56.4737 133.773 56.3031 138.643 58.2757 142.667C59.1534 144.458 60.4643 146.19 60.3931 148.183C60.3024 150.721 58.0138 152.594 55.7766 153.797C53.5393 155.001 51.0102 156.018 49.6424 158.159C47.3542 161.739 49.3722 166.66 47.8281 170.618C47.3039 171.962 46.3624 173.363 46.8576 174.718C49.995 175.042 53.0548 173.544 55.5588 171.626C58.0629 169.709 60.2072 167.347 62.769 165.508C66.2201 163.03 70.4136 161.506 73.2654 158.357C74.6815 156.762 75.6843 154.844 76.1856 152.771C76.6869 150.697 76.6714 148.533 76.1406 146.467C75.8464 145.368 75.4014 144.28 75.4329 143.143C75.4847 141.27 76.8074 139.682 78.2123 138.442C79.6171 137.201 81.2125 136.092 82.1493 134.469C83.0906 132.839 83.2509 130.887 83.834 129.096C84.4172 127.306 85.7163 125.481 87.5936 125.327C88.7363 125.233 89.8218 125.784 90.8356 126.319L96.1632 129.131C96.6993 129.492 97.3397 129.666 97.9849 129.626C99.1598 129.414 99.5929 127.941 99.5447 126.749C99.3859 122.817 96.6088 119.325 93.1441 117.457C89.9229 115.72 86.1268 115.147 82.5029 115.152C78.6693 115.159 74.6074 114.836 70.989 116.327Z" fill="#3F3D56"/>
<path d="M151.801 122.692C156.832 124.346 160.887 128.394 163.143 133.183C163.994 134.926 164.546 136.801 164.773 138.728C165.141 142.323 164.068 145.902 162.837 149.301C161.867 151.977 160.783 154.915 161.775 157.583C162.119 158.508 162.699 159.337 162.984 160.282C163.237 161.176 163.221 162.124 162.937 163.009C162.654 163.893 162.117 164.674 161.393 165.256C160.378 166.041 158.982 166.464 158.413 167.614C159.529 167.625 160.314 168.673 160.914 169.614L163.774 174.094L153.058 180.336C152.859 176.451 152.114 172.612 150.848 168.933C150.786 168.676 150.647 168.444 150.449 168.269C150.189 168.125 149.887 168.077 149.595 168.133C147.498 168.308 145.444 168.814 143.366 169.146C138.689 169.891 133.741 169.709 129.435 167.739C127.864 167.1 126.497 166.043 125.483 164.684C124.537 163.287 124.21 161.388 124.986 159.891C126.167 157.612 129.213 157.109 131.094 155.362C131.931 158.694 135.698 160.659 139.126 160.416C139.957 160.374 140.773 160.178 141.532 159.837C143.097 159.093 144.156 157.601 145.049 156.117C147.457 151.957 149.346 147.517 150.673 142.897C151.096 141.643 151.384 140.348 151.533 139.034C151.873 134.989 149.632 130.91 146.176 128.777C142.721 126.645 139.187 127.529 135.419 129.042C136.686 128.533 136.603 125.983 137.612 125.112C138.878 124.059 140.332 123.254 141.897 122.739C145.107 121.657 148.581 121.641 151.801 122.692V122.692Z" fill="#D0CDE1"/>
<path d="M438.438 183.123C438.438 183.123 464.721 190.036 465.182 193.262C465.643 196.488 451.81 205.285 451.81 205.285L422.761 191.419L438.438 183.123Z" fill="#3F3D56"/>
<path opacity="0.1" d="M438.438 183.123C438.438 183.123 464.721 190.036 465.182 193.262C465.643 196.488 451.81 205.285 451.81 205.285L422.761 191.419L438.438 183.123Z" fill="black"/>
<path d="M452.041 177.822C452.041 177.822 443.741 187.962 433.597 187.04C423.453 186.118 446.047 208.702 446.047 208.702L457.574 198.563C457.574 198.563 460.802 185.197 463.568 184.736C466.335 184.275 452.041 177.822 452.041 177.822Z" fill="#CF9595"/>
<path opacity="0.1" d="M452.041 177.822C452.041 177.822 443.741 187.962 433.597 187.04C423.453 186.118 446.047 208.702 446.047 208.702L457.574 198.563C457.574 198.563 460.802 185.197 463.568 184.736C466.335 184.275 452.041 177.822 452.041 177.822Z" fill="black"/>
<path d="M503.222 315.169C503.222 315.169 504.605 323.465 500.455 325.309C496.306 327.152 488.006 355.267 488.006 355.267L495.845 363.102L517.977 327.152C517.977 327.152 524.432 314.247 522.127 314.247C519.821 314.247 503.222 315.169 503.222 315.169Z" fill="#FFB9B9"/>
<path opacity="0.1" d="M503.222 315.169C503.222 315.169 504.605 323.465 500.455 325.309C496.306 327.152 488.006 355.267 488.006 355.267L495.845 363.102L517.977 327.152C517.977 327.152 524.432 314.247 522.127 314.247C519.821 314.247 503.222 315.169 503.222 315.169Z" fill="black"/>
<path d="M489.85 354.345L488.006 353.423C488.006 353.423 477.401 358.954 478.784 361.72C480.167 364.485 483.395 370.016 483.395 371.859C483.395 373.703 485.239 384.764 491.234 385.686C497.228 386.608 497.228 381.077 496.306 378.773C495.383 376.468 494.922 368.633 495.383 365.868C495.785 363.936 496.505 362.084 497.515 360.389L489.85 354.345Z" fill="#2F2E41"/>
<path d="M480.628 312.865C480.628 312.865 479.245 347.432 488.928 361.72C488.928 361.72 492.617 371.859 493.078 372.781C493.539 373.703 501.378 369.555 501.378 369.555C501.378 369.555 497.228 341.901 497.689 337.292C498.15 332.683 495.383 326.692 495.383 326.692L494.922 312.865H480.628Z" fill="#FFB9B9"/>
<path d="M502.3 367.25L492.672 371.799C492.672 371.799 493.539 378.773 494 380.155C494.461 381.538 487.545 391.678 494.922 392.6C502.3 393.521 509.677 392.6 507.833 390.295C505.989 387.991 503.222 377.851 503.683 375.086C504.144 372.32 502.3 367.25 502.3 367.25Z" fill="#2F2E41"/>
<path d="M482.934 184.275C482.934 184.275 476.94 183.814 476.018 201.328C475.451 211.46 475.451 221.615 476.018 231.747L490.773 232.208L489.389 204.554L482.934 184.275Z" fill="#FFB9B9"/>
<path d="M500.455 170.909C500.455 170.909 501.839 181.049 495.383 181.97C488.928 182.892 502.761 197.18 502.761 197.18L520.743 187.04C520.743 187.04 513.827 174.596 517.516 168.604C521.205 162.613 500.455 170.909 500.455 170.909Z" fill="#FFB9B9"/>
<path opacity="0.1" d="M500.455 170.909C500.455 170.909 501.839 181.049 495.383 181.97C488.928 182.892 502.761 197.18 502.761 197.18L520.743 187.04C520.743 187.04 513.827 174.596 517.516 168.604C521.205 162.613 500.455 170.909 500.455 170.909Z" fill="black"/>
<path d="M463.568 191.188C472.481 191.188 479.706 183.966 479.706 175.057C479.706 166.148 472.481 158.926 463.568 158.926C454.655 158.926 447.43 166.148 447.43 175.057C447.43 183.966 454.655 191.188 463.568 191.188Z" fill="#CF9595"/>
<path d="M506.911 176.44C515.824 176.44 523.049 169.217 523.049 160.308C523.049 151.399 515.824 144.177 506.911 144.177C497.998 144.177 490.772 151.399 490.772 160.308C490.772 169.217 497.998 176.44 506.911 176.44Z" fill="#FFB9B9"/>
<path d="M415.153 216.998C415.153 216.998 414.692 234.052 415.153 236.817C415.614 239.582 412.387 263.088 412.387 263.088L422.531 255.714C422.531 255.714 430.369 230.825 427.142 224.373C423.914 217.92 415.153 216.998 415.153 216.998Z" fill="#CF9595"/>
<path d="M468.179 224.373C468.179 224.373 466.335 238.2 472.329 239.121C478.323 240.043 479.706 228.521 479.706 228.521L477.401 216.998L468.179 224.373Z" fill="#CF9595"/>
<path d="M454.838 171.52C455.669 172.274 456.501 173.098 457.57 173.436C459.362 174.003 461.543 173.121 463.071 174.214C464.524 175.253 464.639 177.626 466.228 178.442C466.891 178.715 467.61 178.824 468.324 178.758L473.945 178.692C473.806 179.048 473.744 179.43 473.764 179.812C473.785 180.194 473.886 180.568 474.062 180.907C474.238 181.247 474.485 181.545 474.786 181.782C475.086 182.019 475.434 182.189 475.806 182.281C476.394 182.392 477.132 182.365 477.423 182.887C477.738 183.452 477.59 184.576 478.219 184.427C478.951 183.175 479.967 182.112 481.186 181.324C481.872 180.881 482.653 180.496 483.063 179.789C483.628 178.814 483.299 177.595 483.259 176.469C483.133 172.964 485.965 169.687 485.245 166.254C485.026 165.398 484.698 164.574 484.269 163.801L480.673 156.627C480.038 155.359 479.299 153.991 477.987 153.452C476 152.635 473.87 154.089 471.755 154.462C469.351 154.885 466.962 153.88 464.614 153.213C462.266 152.547 459.463 152.307 457.644 153.934C456.905 154.595 456.393 155.52 455.531 156.009C454.059 156.843 451.734 156.354 450.984 157.87C450.616 158.614 450.859 159.522 450.619 160.316C450.292 161.399 449.185 162.006 448.262 162.66C447.339 163.314 446.442 164.398 446.818 165.465C446.978 165.919 447.35 166.277 447.5 166.734C447.776 167.577 447.241 168.442 446.829 169.227C445.455 171.846 447.716 172.353 449.43 171.177C451.517 169.745 452.738 169.613 454.838 171.52Z" fill="#3F3D56"/>
<path d="M495.844 178.744C495.844 178.744 496.767 187.962 504.144 187.962C511.522 187.962 518.363 181.805 518.363 181.805C518.363 181.805 531.349 185.197 531.349 187.04C531.349 188.884 520.744 202.25 520.744 202.25C520.744 202.25 516.133 237.278 517.977 239.121C519.821 240.965 539.187 306.873 535.959 312.404C532.732 317.935 534.115 317.935 512.444 319.317C490.772 320.7 488.928 325.309 479.706 318.395C470.484 311.482 469.101 307.334 465.412 306.873C461.724 306.412 457.574 255.714 461.263 248.8C464.951 241.887 471.407 233.13 473.712 231.286C476.018 229.443 481.477 211.875 481.477 211.875L481.551 183.353L495.844 178.744Z" fill="#F8E71C"/>
<path d="M527.199 186.118C527.199 186.118 537.804 184.736 534.576 195.797C531.349 206.859 526.738 227.138 519.36 228.06C511.983 228.982 520.743 201.328 520.743 201.328L527.199 186.118Z" fill="#FFB9B9"/>
<path d="M504.45 143.145C509.534 142.027 514.922 141.769 519.887 143.332C524.853 144.894 529.341 148.467 531.174 153.337C533.008 158.207 531.716 164.315 527.543 167.425C525.369 169.045 522.591 169.815 520.673 171.731C518.604 173.798 517.594 177.119 514.843 178.111C514.235 176.074 514.171 173.914 514.659 171.846C515.004 170.768 515.25 169.661 515.393 168.538C515.449 167.408 515.047 166.159 514.058 165.607C513.007 165.022 511.705 165.397 510.505 165.308C507.52 165.088 505.588 162.096 504.466 159.322C503.345 156.548 502.34 153.399 499.751 151.898C497.313 150.484 494.609 151.134 492.009 151.496C491.618 150.068 495.628 146.961 496.805 146.164C499.141 144.686 501.735 143.662 504.45 143.145Z" fill="#3F3D56"/>
<path d="M524.893 216.998C524.893 216.998 520.743 198.563 520.743 196.258C520.743 193.954 518.438 182.892 519.821 180.127C521.205 177.361 524.432 161.691 519.36 163.074C514.288 164.456 511.983 184.275 511.983 184.275C511.983 184.275 512.905 195.797 511.983 199.484C511.061 203.172 511.522 227.599 514.749 228.06C517.977 228.521 524.893 226.216 524.893 216.998Z" fill="#FFB9B9"/>
<path d="M529.274 160.078C534.876 160.078 539.418 155.538 539.418 149.938C539.418 144.338 534.876 139.798 529.274 139.798C523.671 139.798 519.13 144.338 519.13 149.938C519.13 155.538 523.671 160.078 529.274 160.078Z" fill="#3F3D56"/>
<path d="M420.456 191.419C420.456 191.419 411.465 204.554 411.465 219.764C411.465 219.764 422.531 219.303 428.986 228.521C435.441 237.739 420.456 191.419 420.456 191.419Z" fill="#3F3D56"/>
<path d="M419.303 351.119C419.303 351.119 426.22 365.868 426.22 373.242C426.22 380.616 440.513 374.625 440.513 374.625C440.513 374.625 431.292 350.658 432.214 347.432C433.136 344.206 419.303 351.119 419.303 351.119Z" fill="#CF9595"/>
<path d="M444.663 350.197C444.663 350.197 446.601 377.657 444.249 380.059C441.897 382.46 453.424 381.077 453.424 381.077C453.424 381.077 453.424 360.337 457.113 352.041L444.663 350.197Z" fill="#CF9595"/>
<path d="M424.836 253.87C424.836 253.87 411.004 260.323 411.004 263.088C411.004 265.853 408.698 279.68 407.776 281.063C406.854 282.446 406.854 294.89 407.776 296.733C408.698 298.577 410.542 355.267 417.459 355.267C424.375 355.267 434.058 352.041 434.519 349.275C434.519 349.275 428.064 323.926 430.369 317.474C432.675 311.021 433.597 289.82 438.208 287.055C442.819 284.289 442.819 289.82 442.819 289.82L441.897 328.535C441.897 328.535 440.975 353.423 442.819 353.884C444.663 354.345 456.652 356.189 458.035 354.345C459.418 352.502 464.029 327.152 464.029 324.387C464.029 321.622 468.64 292.124 469.101 288.898C469.562 285.672 470.946 258.018 467.718 256.174C464.49 254.331 424.836 253.87 424.836 253.87Z" fill="#2F2E41"/>
<path d="M432.214 372.781C432.214 372.781 427.603 369.094 424.836 376.007C423.247 380.073 420.719 383.705 417.459 386.608C417.459 386.608 415.614 391.217 423.453 390.295C431.292 389.373 444.663 381.077 444.663 381.077C444.663 381.077 441.373 372.653 439.79 372.717C438.208 372.781 437.286 376.007 432.214 372.781Z" fill="#2F2E41"/>
<path d="M451.58 377.851C451.58 377.851 444.668 376.007 443.282 377.851C441.897 379.695 440.052 390.295 442.358 391.678C444.663 393.06 454.807 392.6 456.191 391.678C457.574 390.756 456.191 384.764 456.191 384.764L451.58 377.851Z" fill="#2F2E41"/>
<path d="M443.741 194.414C443.741 194.414 436.825 188.423 438.669 183.353C438.669 183.353 417.92 190.266 418.381 195.797C418.842 201.328 427.142 224.373 427.142 224.373C427.142 224.373 413.77 250.183 420.686 255.714C427.603 261.244 425.758 254.792 437.747 258.94C449.735 263.088 454.807 261.244 459.418 260.323C464.029 259.401 464.951 259.862 468.179 259.862C471.407 259.862 469.562 250.644 468.179 245.574C466.796 240.504 464.951 233.13 466.335 231.286C467.718 229.443 479.706 197.18 479.706 197.18C479.706 197.18 470.395 189.729 459.373 192.302C459.373 192.302 451.58 198.563 443.741 194.414Z" fill="#3F3D56"/>
<path d="M475.095 198.563C475.095 198.102 479.706 197.18 479.706 197.18C479.706 197.18 482.473 215.616 481.09 219.303C479.706 222.99 468.179 227.138 466.335 226.677C464.49 226.216 475.095 198.563 475.095 198.563Z" fill="#3F3D56"/>
<path d="M464.944 163.728C470.942 163.728 475.805 158.868 475.805 152.872C475.805 146.876 470.942 142.016 464.944 142.016C458.946 142.016 454.083 146.876 454.083 152.872C454.083 158.868 458.946 163.728 464.944 163.728Z" fill="#3F3D56"/>
</g>
<defs>
<clipPath id="clip0">
<rect width="572" height="405" fill="white"/>
</clipPath>
</defs>
</svg>
