<svg width="14" height="14" viewBox="0 0 14 14" fill="none" xmlns="http://www.w3.org/2000/svg">
<path fill-rule="evenodd" clip-rule="evenodd" d="M9.24758 9.66C8.26583 10.5449 6.96617 11.0833 5.54167 11.0833C2.48325 11.0833 0 8.60008 0 5.54167C0 2.48325 2.48325 0 5.54167 0C8.60008 0 11.0833 2.48325 11.0833 5.54167C11.0833 6.96617 10.5449 8.26583 9.66 9.24758L14 13.5876L13.5876 14L9.24758 9.66V9.66ZM5.54167 0.583333C8.27808 0.583333 10.5 2.80525 10.5 5.54167C10.5 8.27808 8.27808 10.5 5.54167 10.5C2.80525 10.5 0.583333 8.27808 0.583333 5.54167C0.583333 2.80525 2.80525 0.583333 5.54167 0.583333V0.583333Z" fill="white"/>
</svg>
